<?xml version="1.0" encoding="UTF-8"?>
<svg version="1.1" xmlns="http://www.w3.org/2000/svg" xmlns:xlink="http://www.w3.org/1999/xlink">
<defs>

</defs>
<symbol id="i-antelope" xmlns="http://www.w3.org/2000/svg" viewBox="0 0 512 512"><path d="M134.405 182.007h-119.4c-8.291 0-15 6.709-15 15 0 41.352 41.37 74.998 90.998 74.998 6.401 0 12.642-.542 18.647-1.597l39.755-73.401c0-8.291-6.709-15-15-15z" fill="#a07854"/><path d="M496.995 182.007H375.997l24.755 88.401c6.006 1.055 12.246 1.597 18.647 1.597 49.628 0 92.595-33.646 92.595-74.998 0-8.291-6.709-15-14.999-15z" fill="#896748"/><path d="M152.818 199.423c-3.486 0-6.943-1.318-9.712-4.102-50.595-50.593-58.313-130.566-19.584-188.63 4.556-6.899 13.887-8.774 20.801-4.16 6.899 4.6 8.76 13.916 4.16 20.801-30.819 46.215-24.682 110.265 14.604 149.551 5.859 5.859 6.475 15.967.615 21.826-3.076 3.074-7.002 4.714-10.884 4.714z" fill="#73553a"/><path d="M357.116 198.808c-3.765 0-7.471-1.318-10.239-4.072-5.874-5.83-6.519-14.678-.703-20.566 40.546-40.575 46.698-104.625 15.894-150.84-4.6-6.899-2.739-16.201 4.16-20.801 6.87-4.614 16.187-2.739 20.801 4.16 38.715 58.08 30.98 138.052-18.369 187.401-3.078 3.079-7.34 4.718-11.544 4.718z" fill="#59422d"/><path d="M391.898 362.902c-24.301 35.999-30.6 47.099-31.801 64.8C356.199 475.1 317.198 512 271 512h-31.198c-46.2 0-85.499-36.9-89.099-84.298-1.5-17.701-7.8-28.8-32.099-64.8-24.299-36.298-33.299-79.797-24.299-119.096 1.201-6 3.3-10.8 5.101-16.201l81.297-27.598h149.098l81.597 27.3c1.8 5.4 3.6 10.499 5.099 16.5 8.699 39.298-.002 82.798-24.599 119.095z" fill="#fedbab"/><path d="M411.396 227.307c-34.498-2.1-63.299 13.2-81.597 32.698-19.501 20.7-29.999 48-29.999 76.498v15c0 21-15 39-35.399 43.199-2.401.3-4.801.601-7.202.601-.298 0-.599.3-1.199.3h-1.2c-.601 0-.901-.3-1.501-.3-2.098 0-4.499-.3-6.899-.601-20.4-4.199-35.399-22.2-35.399-43.199v-15c0-28.498-10.8-55.799-30.299-76.498-18.3-19.799-47.099-34.798-81.297-32.4 3.6-11.1 8.399-21.599 14.399-29.699 9-12.299 20.4-21.299 34.498-27.298 37.201-15.901 77.999-19.2 106.199-19.2h1.5c28.199 0 69.299 3.3 106.498 19.2 14.101 6 25.5 15 34.5 27.298 5.998 8.1 10.497 18.301 14.397 29.401z" fill="#ffac46"/><path d="M391.898 362.902c-24.301 35.999-30.6 47.099-31.801 64.8C356.199 475.1 317.198 512 271 512h-15V200.006h73.799l81.597 27.3c1.8 5.4 3.6 10.499 5.099 16.5 8.701 39.299 0 82.799-24.597 119.096z" fill="#fec478"/><path d="M411.396 227.307c-34.498-2.1-63.299 13.2-81.597 32.698-19.501 20.7-29.999 48-29.999 76.498v15c0 21-15 39-35.399 43.199-2.401.3-4.801.601-7.202.601-.298 0-.599.3-1.199.3V151.408c28.199 0 69.299 3.3 106.498 19.2 14.101 6 25.5 15 34.5 27.298 5.999 8.1 10.498 18.301 14.398 29.401z" fill="#fe8821"/><circle cx="151.006" cy="287.004" r="15" fill="#57555c"/><circle cx="226.004" cy="437" r="15" fill="#896748"/><circle cx="286.003" cy="437" r="15" fill="#73553a"/><circle cx="359.672" cy="287.004" r="15" fill="#3c3a41"/></symbol>
<symbol id="i-bear" xmlns="http://www.w3.org/2000/svg" viewBox="0 0 512 512"><path d="M422 182c-49.706 0-90-40.294-90-90s40.294-92 90-92 90 42.294 90 92-40.294 90-90 90z" fill="#713708"/><path d="M422 152c-33.076 0-60-26.909-60-60s26.924-62 60-62 60 28.909 60 62-26.924 60-60 60z" fill="#fec478"/><path d="M90 182c-49.706 0-90-40.294-90-90S40.294 0 90 0s90 42.294 90 92-40.294 90-90 90z" fill="#994c10"/><path d="M90 152c-33.076 0-60-26.909-60-60s26.924-62 60-62 60 28.909 60 62-26.924 60-60 60z" fill="#fedbab"/><path d="M496.96 275.3l-69.6-152.1C410.26 86 372.76 62 331.96 62H180.4c-41.1 0-78.6 24-95.7 61.2L15.1 275.3C-4.7 318.5-5 368 14.5 411.5 34 454.7 71.2 487.7 118 502.1c21.3 6.6 43.8 9.9 66 9.9h144.06c22.5 0 44.7-3.3 66-9.9l1.5-.3c45.3-14.1 82.5-47.1 102-90.3 19.5-43.5 19.2-93-.6-136.2z" fill="#a07854"/><path d="M497.56 411.5c-19.5 43.2-56.7 76.2-102 90.3l-1.5.3c-21.3 6.6-43.5 9.9-66 9.9H256V62h75.96c40.8 0 78.3 24 95.4 61.2l69.6 152.1c19.8 43.2 20.1 92.7.6 136.2z" fill="#896748"/><path d="M166 302c-24.853 0-45-20.147-45-45s20.147-45 45-45 45 20.147 45 45-20.147 45-45 45z" fill="#73553a"/><path d="M166 272c-8.262 0-15-6.724-15-15s6.738-15 15-15 15 6.724 15 15-6.738 15-15 15z" fill="#57555c"/><path d="M346 302c-24.853 0-45-20.147-45-45s20.147-45 45-45 45 20.147 45 45-20.147 45-45 45z" fill="#59422d"/><path d="M346 272c-8.262 0-15-6.724-15-15s6.738-15 15-15 15 6.724 15 15-6.738 15-15 15z" fill="#3c3a41"/><path d="M258.401 212H256c-76.8 2.999-132.599 147.9-132.599 210 0 40.8 23.099 89.399 132.599 90h2.401c111.599 0 135-48.9 135-90 0-62.701-57.001-210-135-210z" fill="#fedbab"/><path d="M393.401 422c0 41.1-23.401 90-135 90H256V212h2.401c77.999 0 135 147.299 135 210z" fill="#fec478"/><path d="M258.401 362c-.901 0-1.8 0-2.401.3-23.699.899-42.599 20.7-42.599 44.7 0 3.9 1.5 7.8 4.499 10.499l25.501 25.8V497c0 7.5 5.4 13.799 12.599 14.7.601.3 1.5.3 2.401.3 8.399 0 15-6.601 15-15v-53.701l25.499-25.8c3.001-2.699 4.501-6.599 4.501-10.499 0-24.901-20.102-45-45-45z" fill="#57555c"/><path d="M303.401 407c0 3.9-1.5 7.8-4.501 10.499l-25.499 25.8V497c0 8.399-6.601 15-15 15-.901 0-1.8 0-2.401-.3V362.3c.601-.3 1.5-.3 2.401-.3 24.898 0 45 20.099 45 45z" fill="#3c3a41"/></symbol>
<symbol id="i-bull" xmlns="http://www.w3.org/2000/svg" viewBox="0 0 512 512"><path d="M163.921 217.727c-19.805-28.374-43.86-43.505-69.7-45.028-50.99-3.179-89.603 48.705-91.244 50.902a14.985 14.985 0 000 17.93c1.553 2.095 38.627 51.034 87.025 51.034 33.735 0 62.742-23.467 77.361-38.7l-3.442-36.138z" fill="#57555c"/><path d="M509.023 223.601c-1.611-2.153-39.008-52.558-89.589-50.99-26.484.952-51.126 16.113-71.37 45.116l-14.092 23.804c1.553 2.095 39.627 51.034 88.025 51.034s85.473-48.939 87.025-51.034a14.987 14.987 0 00.001-17.93z" fill="#3c3a41"/><g fill="#fec478"><path d="M507.489 49.909c-4.135-14.652-25.272-13.622-28.865 1.172-7.163 29.496-25.507 56.26-53.624 73.643-32.644 20.206-75.159 24.217-115.886 6.943l-12.832 24.58c28.29 36.316 75.246 53.536 122.216 43.486 42.351-9.062 77.365-42.22 88.938-83.955 6.197-22.347 5.944-44.991.053-65.869zM4.51 49.909c4.135-14.652 25.272-13.622 28.865 1.172 7.163 29.496 25.507 56.26 53.624 73.643 32.644 20.206 75.159 24.217 115.886 6.943l12.832 24.58c-28.29 36.316-75.246 53.536-122.216 43.486-42.351-9.062-77.365-42.22-88.938-83.955-6.196-22.347-5.944-44.991-.053-65.869z"/></g><path d="M349.599 376.263c-2.999 4.801-7.8 7.2-12.9 7.2L256 382.864l-80.098-.3c-5.101 0-10.201-2.701-12.9-7.2-74.999-126.299-30-215.997 2.699-235.198 27.9-16.5 59.1-24.901 90.299-24.901s61.799 8.401 89.699 24.6c43.198 25.502 74.099 119.1 3.9 236.398z" fill="#787780"/><g fill="#57555c"><path d="M349.599 376.263c-2.999 4.801-7.8 7.2-12.9 7.2L256 382.864V115.266c31.199 0 61.799 8.401 89.699 24.6 43.198 25.501 74.099 119.099 3.9 236.397z"/><circle cx="195.997" cy="247.566" r="15"/></g><circle cx="315.995" cy="247.566" r="15" fill="#3c3a41"/><path d="M360.999 412.563c0 16.5-6.599 31.5-17.701 42.298-10.8 11.1-25.8 17.701-42.298 17.701h-89.999c-32.999 0-59.999-27.001-59.999-59.999 0-16.5 6.599-31.5 17.701-42.3 10.8-11.1 25.8-17.699 42.298-17.699H301c32.998 0 59.999 26.999 59.999 59.999z" fill="#8b8892"/><path d="M360.999 412.563c0 16.5-6.599 31.5-17.701 42.298-10.8 11.1-25.8 17.701-42.298 17.701h-45V352.564h44.999c32.999 0 60 26.999 60 59.999z" fill="#787780"/><circle cx="225.996" cy="412.564" r="15" fill="#57555c"/><circle cx="285.996" cy="412.564" r="15" fill="#3c3a41"/></symbol>
<symbol id="i-chameleon" xmlns="http://www.w3.org/2000/svg" viewBox="0 0 512.001 512.001"><path d="M450.916 316.886c0 22.813-3.602 45.327-9.907 66.338l-41.124 27.918c-47.128-14.409-80.747-21.313-114.067-21.313-33.92 0-67.239 7.204-114.067 21.313l-41.124-27.918c-6.305-21.011-9.907-43.525-9.907-66.338l.3-123.073 12.006-57.333c4.504-22.213 17.711-40.523 35.721-50.43 15.309-8.106 32.72-9.305 48.929-2.703l15.91 6.305h104.462l15.91-6.305c16.208-6.603 33.62-5.403 48.929 2.703 18.01 9.907 31.217 28.217 35.721 50.43l12.006 57.333.302 123.073z" fill="#c4d55f"/><g fill="#98cb51"><path d="M450.916 316.886c0 22.813-3.602 45.327-9.907 66.338l-41.124 27.918c-47.128-14.409-80.747-21.313-114.067-21.313V89.653h52.231l15.91-6.305c16.208-6.603 33.62-5.403 48.929 2.703 18.01 9.907 31.217 28.217 35.721 50.43l12.006 57.333.301 123.072z"/><path d="M441.009 383.224c-3.001 9.606-6.903 18.911-11.107 27.918-10.806 23.413-25.514 44.425-44.125 60.935-28.517 25.815-63.937 39.924-99.96 39.924-31.518 0-62.438-10.806-88.853-30.919-3.902-2.701-7.504-5.703-11.107-9.005-4.201-3.602-7.805-7.504-11.706-11.707-12.908-14.108-24.014-30.918-32.418-49.229-4.202-9.006-8.106-18.012-11.107-27.918 26.115-8.104 52.831-14.107 79.846-18.01 9.907-1.501 19.813-2.402 29.717-3.302a573.25 573.25 0 0145.628-1.801c52.232.001 104.762 7.505 155.192 23.114z"/></g><path d="M441.009 383.224c-3.001 9.606-6.903 18.911-11.107 27.918-10.806 23.413-25.514 44.425-44.125 60.935-28.517 25.815-63.937 39.924-99.96 39.924v-151.89c52.232 0 104.762 7.504 155.192 23.113z" fill="#60c244"/><g fill="#eb4f00"><path d="M435.907 331.894c-41.377 0-75.044-33.667-75.044-75.044s33.667-75.044 75.044-75.044 76.045 33.667 76.045 75.044-34.669 75.044-76.045 75.044zM220.08 458.568c-6.603 8.406-14.407 16.211-23.115 22.513C173.253 499.092 143.034 512 109.716 512 49.979 512 .05 471.176.05 421.048c0-41.724 27.416-64.238 51.73-67.54 25.216-3.602 47.429 11.107 54.632 36.921 2.402 8.106-2.4 16.208-10.205 18.611-8.106 2.101-16.21-2.402-18.611-10.205-3.303-11.407-11.407-17.11-21.614-15.61-12.306 1.501-25.916 14.107-25.916 37.822 0 33.62 36.423 60.935 79.649 60.935 24.314 0 46.126-9.606 64.439-21.614 8.704-5.703 16.209-12.306 22.213-20.111 7.805-10.505 15.908-48.328 14.107-75.044 9.907-1.501 19.813-2.402 29.717-3.302 2.703 31.519-4.201 75.945-20.111 96.657z"/></g><path d="M135.731 331.894c-41.377 0-75.044-33.667-75.044-75.044s33.667-75.044 75.044-75.044 75.044 33.667 75.044 75.044-33.668 75.044-75.044 75.044z" fill="#ff6200"/><circle cx="135.73" cy="256.85" r="15.009" fill="#57555c"/><g fill="#3c3a41"><circle cx="435.906" cy="256.85" r="15.009"/><circle cx="315.836" cy="316.886" r="15.009"/></g><circle cx="255.8" cy="316.886" r="15.009" fill="#57555c"/><path d="M358.461 98.357L298.425 6.303c-3-4.204-7.804-6.303-12.606-6.303s-9.606 2.099-12.606 6.303l-60.035 92.054c-2.703 4.202-3.303 9.305-1.202 14.109l60.035 150.088c2.101 5.703 7.805 9.305 13.809 9.305 6.005 0 11.707-3.602 13.809-9.305l60.035-150.088c2.1-4.804 1.499-9.907-1.203-14.109z" fill="#98cb51"/><path d="M285.819 271.859V0c4.802 0 9.606 2.099 12.606 6.303l60.035 92.054c2.703 4.202 3.303 9.305 1.202 14.109l-60.035 150.088c-2.101 5.703-7.805 9.305-13.808 9.305z" fill="#60c244"/></symbol>
<symbol id="i-eagle" xmlns="http://www.w3.org/2000/svg" viewBox="0 0 512 512"><path d="M480.5 162.11c-13.2-100.499-89.401-148.5-156-159.3-2.401-.3-5.099-.899-7.5-.899-64.2-8.401-122.1 14.399-149.099 58.2L152 226.911v27.9c0 42.299-6 111.2-15.901 145.699l-9.899 34.501s-.901 2.699-.901 2.999c-4.499 17.401-.899 36.301 10.201 50.7s28.5 23.101 46.5 23.101 33.9-7.8 45-20.4c11.1 12.599 27.001 20.4 45 20.4s33.9-7.8 45-20.4c11.1 12.599 27.001 20.4 45 20.4s33.9-7.8 45-20.4c11.1 12.599 27.001 20.4 45 20.4 32.999 0 60-27.001 60-61.5L480.5 162.11z" fill="#e5e5e5"/><path d="M512 450.311c0 34.499-27.001 61.5-60 61.5-17.999 0-33.9-7.8-45-20.4-11.1 12.599-27.001 20.4-45 20.4s-33.9-7.8-45-20.4V1.911c2.401 0 5.099.599 7.5.899 66.599 10.8 142.8 58.801 156 159.3L512 450.311z" fill="#d9d9d9"/><path d="M165.96 227.799c-19.775 0-43.389-4.79-70.415-19.028-19.526-10.283-44.554-11.675-65.193-3.779l-9.99 3.823a14.918 14.918 0 01-13.857-1.641A15.003 15.003 0 010 194.811C0 121.247 78.743 61.979 176.697 59.87c4.937-.249 9.829 2.358 12.686 6.504a15.02 15.02 0 011.523 14.18c-18.282 44.604 13.11 79.248 42.656 100.444.601.439 3.354 2.534 3.882 3.047a15.002 15.002 0 014.277 13.667 14.978 14.978 0 01-9.126 11.016c-1.157.469-2.651 1.304-4.526 2.285-10.605 5.595-31.86 16.786-62.109 16.786z" fill="#ffac46"/><path d="M347 74.811H227c-8.401 0-15 6.599-15 15 0 41.4 33.6 75 75 75 10.499 0 20.7-2.1 30-6.301 26.4-11.4 45-37.8 45-68.699 0-8.401-6.599-15-15-15z" fill="#787780"/><path d="M347 74.811h-30v83.699c26.4-11.4 45-37.8 45-68.699 0-8.401-6.599-15-15-15z" fill="#57555c"/><path d="M272 391.811c-8.291 0-15-6.709-15-15v-32c0-8.291 6.709-15 15-15s15 6.709 15 15v32c0 8.291-6.709 15-15 15z" fill="#aeadb3"/><path d="M362 391.811c-8.291 0-15-6.709-15-15v-32c0-8.291 6.709-15 15-15s15 6.709 15 15v32c0 8.291-6.709 15-15 15z" fill="#8b8892"/><path d="M287 134.811c-19.57 0-36.24-12.539-42.422-30h84.873c-4.072 11.558-12.744 21.152-24.346 26.162-5.8 2.622-11.718 3.838-18.105 3.838z" fill="#fedb41"/><path d="M317 123.079c5.566-5.004 9.954-11.186 12.451-18.268H317v18.268z" fill="#ff941d"/></symbol>
<symbol id="i-elephant" xmlns="http://www.w3.org/2000/svg" viewBox="0 0 512 512"><path d="M164.78 48.386c-22.544-15.317-51.003-21.243-78.273-16.517-42.368 7.228-77.245 41.856-84.809 84.238-5.208 29.288 1.653 58.284 19.326 81.648 11.88 15.698 23.041 33.311 35.126 55.417 15.742 28.85 46.892 46.771 79.677 46.771 6.056 0 11.938-.6 17.658-1.741 8.12-1.609 13.386-9.509 11.762-17.614l-.467-232.202z" fill="#787780"/><path d="M510.687 117.907c-6.641-42.529-41.758-77.918-83.978-86.037-27.167-5.222-54.73.015-77.626 14.864l-4.432 236.386c-.22 8.28 6.291 15.171 14.556 15.405l13.416.322c.644.015 1.302.015 1.946.015 32.039 0 62.692-17.146 78.726-45.074 12.538-21.827 24.081-39.208 36.311-54.671 18.17-22.97 25.66-51.805 21.081-81.21z" fill="#57555c"/><path d="M48.21 405.263c-5.574-8.895-3.233-14.615 22.325-32.917 27.913-20.028 74.378-53.326 95.985-131.36l38.783 44.036 4.228 1.214c-20.013 70.31-93.527 116.686-138.88 123.138-6.665.952-18.856 1.589-22.441-4.111z" fill="#fedbab"/><path d="M436.277 408.847c-47.942-8.705-122.538-55.958-138.368-133.774l3.73-.746 41.607-34.745c21.476 79.045 68.32 112.62 96.366 132.735 25.572 18.331 27.928 24.036 22.339 32.961-3.969 6.333-18.321 4.913-25.674 3.569z" fill="#fec478"/><path d="M255.673.328c-83.294 0-134.827 51.533-134.827 134.827 0 64.416 29.962 121.644 76.702 148.609l13.183 213.826c.6 7.79 7.191 14.083 14.981 14.083h59.923c7.79 0 14.381-6.293 14.981-14.083l13.183-213.826c27.264-15.579 49.438-42.245 62.918-75.502 8.99-22.771 13.783-47.34 13.783-73.106C390.5 51.861 338.967.328 255.673.328z" fill="#aeadb3"/><path d="M390.5 135.155c0 25.767-4.793 50.336-13.783 73.106-13.482 33.257-35.654 59.923-62.918 75.502l-13.183 213.826c-.6 7.79-7.191 14.083-14.981 14.083h-29.962V.328C338.967.328 390.5 51.861 390.5 135.155z" fill="#8b8892"/><circle cx="195.749" cy="150.138" r="14.981" fill="#57555c"/><circle cx="315.595" cy="150.138" r="14.981" fill="#3c3a41"/></symbol>
<symbol id="i-fox" xmlns="http://www.w3.org/2000/svg" viewBox="0 0 512 512"><path d="M453.733 229.122a14.93 14.93 0 01-7.439-1.977l-117.287-67.013a14.976 14.976 0 01-7-17.06C341.162 74.594 395.962 19.933 465.025 3.62L478.234.501c4.804-1.201 9.899.161 13.56 3.515a15.014 15.014 0 014.745 13.18l-27.956 199.04a15.03 15.03 0 01-8.26 11.364 15.107 15.107 0 01-6.59 1.522z" fill="#fd3018"/><path d="M354.399 140.098l87.588 50.04 21.732-155.165c-50.859 14.805-91.527 55.246-109.32 105.125z" fill="#fec478"/><path d="M62.192 223.337a14.996 14.996 0 01-14.835-12.814L19.225 17.268a14.993 14.993 0 014.672-13.209C27.543.691 32.713-.569 37.443.471l11.745 2.724c80.881 18.745 142.201 89.221 151.104 172.402.791 7.41-4.983 14.278-12.203 16.124L65.897 222.869a14.454 14.454 0 01-3.705.468z" fill="#eb4f00"/><g fill="#fedbab"><path d="M52.145 34.987L74.61 189.699l92.992-23.709C156.224 104.659 111.573 52.663 52.145 34.987z"/><path d="M468.741 212.012l-50.085-29.992H93.344l-50.085 29.992C12.666 260.598-2.63 318.482.371 377.867c.601 6.297 4.798 11.696 10.797 13.495 2.4.601 4.199.901 8.399.901 94.773 4.498 150.058 51.585 178.851 90.275 13.795 18.295 34.789 29.091 57.583 29.091 22.794 0 43.789-10.797 57.583-29.091 63.882-86.076 143.76-88.777 173.452-89.675 6.599-.3 10.198-.601 13.797-1.501 5.998-1.799 10.196-7.198 10.797-13.495 2.999-59.385-12.297-117.269-42.889-165.855z"/></g><path d="M511.629 377.867c-.601 6.297-4.798 11.696-10.797 13.495-3.599.901-7.198 1.201-13.797 1.501-29.692.899-109.57 3.599-173.452 89.675-13.795 18.295-34.789 29.091-57.583 29.091V182.02h162.655l50.085 29.992c30.593 48.586 45.889 106.47 42.889 165.855z" fill="#fec478"/><path d="M468.741 212.012h-50.085c-51.587 0-96.075 36.889-104.471 87.575l-13.196 116.668-14.996 13.196H226.01l-14.996-13.196-13.196-117.267c-8.397-50.087-52.884-86.977-104.471-86.977H43.259c6.597-10.496 14.095-20.394 22.194-29.992 3.299-3.599 6.299-7.498 9.597-11.097C123.036 119.936 187.918 92.044 256 92.044s132.964 27.892 180.95 78.878c3.299 3.599 6.299 7.498 9.597 11.097 8.099 9.599 15.596 19.496 22.194 29.993z" fill="#ff6200"/><path d="M468.741 212.012h-50.085c-51.587 0-96.075 36.889-104.471 87.575l-13.196 116.668-14.996 13.196H256V92.045c68.082 0 132.964 27.892 180.95 78.878 3.299 3.599 6.299 7.498 9.597 11.097 8.099 9.598 15.596 19.495 22.194 29.992z" fill="#eb4f00"/><circle cx="135.033" cy="286.991" r="14.996" fill="#57555c"/><circle cx="376.966" cy="286.991" r="14.996" fill="#3c3a41"/><g fill="#896748"><path d="M270.995 451.946v44.988c0 8.399-6.597 14.996-14.996 14.996-8.399 0-14.996-6.597-14.996-14.996v-44.988c0-8.399 6.597-14.996 14.996-14.996 8.399 0 14.996 6.598 14.996 14.996z"/><path d="M255.999 369.468c-24.894 0-44.988 20.093-44.988 44.988 0 3.299 1.199 6.597 3.299 9.297l29.992 37.49c2.7 3.599 7.198 5.698 11.697 5.698s8.998-2.099 11.697-5.698l29.992-37.49c2.099-2.7 3.299-5.998 3.299-9.297 0-24.893-20.094-44.988-44.988-44.988z"/></g><g fill="#73553a"><path d="M270.995 451.946v44.988c0 8.399-6.597 14.996-14.996 14.996v-74.98c8.399 0 14.996 6.598 14.996 14.996z"/><path d="M300.987 414.456c0 3.299-1.199 6.597-3.299 9.297l-29.992 37.49c-2.7 3.599-7.198 5.698-11.697 5.698v-97.473c24.894 0 44.988 20.095 44.988 44.988z"/></g></symbol>
<symbol id="i-koala" xmlns="http://www.w3.org/2000/svg" viewBox="0 0 511.999 511.999"><path d="M208.52 103.626c-6.857-42.567-41.146-77.837-83.375-85.763-30.655-5.817-60.854 1.465-85.002 20.397C16.319 56.928 1.695 84.914.025 115.055a14.986 14.986 0 007.985 14.11 15.028 15.028 0 0016.162-1.406c4.234-3.268 8.382-6.169 12.441-8.719-9.817 21.54-8.997 46.508 2.521 68.107 12.001 22.463 33.819 36.896 59.93 38.669l110.146-92.65c1.128-9.685.893-19.62-.69-29.54z" fill="#787780"/><path d="M471.855 38.26c-24.133-18.902-54.319-26.17-85.002-20.397-42.244 7.927-76.532 43.197-83.375 85.763-1.597 9.847-1.832 19.796-.688 29.54l111.699 92.591c24.558-1.715 46.376-16.148 58.377-38.625 11.518-21.599 12.338-46.567 2.506-68.092a154.76 154.76 0 0112.455 8.733 15.058 15.058 0 0016.162 1.392 14.959 14.959 0 007.985-14.11c-1.669-30.141-16.292-58.127-40.119-76.795z" fill="#57555c"/><path d="M74.872 75.961a14.982 14.982 0 0113.847 9.275c2.33 5.598 1.04 12.06-3.253 16.353-.103.103-10.901 11.004-19.606 26.141-7.912 13.803-8.015 30.727-.249 45.278 7.194 13.495 19.591 21.804 33.98 22.8 14.888 1.143 29.687-2.213 44.296-9.642a14.86 14.86 0 013.487-3.341c24.148-16.646 36.222-45.16 31.519-74.422-4.88-30.317-29.262-55.417-59.286-61.059-21.994-4.073-43.68 1.011-60.957 14.535a75.433 75.433 0 00-18.815 21.716c12.032-5.084 23.739-7.634 35.037-7.634z" fill="#e5e5e5"/><path d="M368.025 186.137c14.652 7.458 29.584 10.814 44.384 9.671 14.389-.996 26.771-9.305 33.98-22.8 7.751-14.55 7.663-31.475-.264-45.278-8.69-15.151-19.488-26.038-19.591-26.141-4.293-4.293-5.583-10.755-3.253-16.353a14.981 14.981 0 0113.847-9.275c11.297 0 23.005 2.564 35.035 7.634a75.387 75.387 0 00-18.815-21.716c-17.29-13.554-38.904-18.712-60.957-14.535-30.038 5.642-54.421 30.741-59.286 61.059-4.703 29.203 7.326 57.689 31.402 74.335a15.167 15.167 0 013.518 3.399z" fill="#d9d9d9"/><path d="M255.927 105.97c-107.434 0-196.06 87.626-196.06 195.059 0 107.432 88.626 195.059 196.06 195.059s196.06-87.628 196.06-195.059c-.001-107.432-88.628-195.059-196.06-195.059z" fill="#8b8892"/><path d="M451.986 301.03c0 107.432-88.626 195.059-196.06 195.059V105.97c107.433 0 196.06 87.627 196.06 195.06z" fill="#787780"/><circle cx="164.9" cy="271.022" r="15.005" fill="#57555c"/><circle cx="346.955" cy="271.022" r="15.005" fill="#3c3a41"/><g fill="#57555c"><path d="M316.945 406.062c0 8.402-6.601 15.005-15.005 15.005-18.004 0-34.911-8.103-46.014-20.706-11.103 12.603-28.01 20.706-46.014 20.706-8.404 0-15.005-6.603-15.005-15.005 0-8.404 6.601-15.005 15.005-15.005 16.505 0 31.009-13.504 31.009-30.009 0-8.404 6.601-15.005 15.005-15.005s15.005 6.601 15.005 15.005c0 16.505 14.504 30.009 31.009 30.009 8.404 0 15.005 6.601 15.005 15.005z"/><path d="M255.927 226.007c-36.61 0-61.019 59.117-61.019 90.027 0 33.009 28.01 60.018 61.019 60.018s61.019-27.009 61.019-60.018c-.001-30.91-24.409-90.027-61.019-90.027z"/></g><g fill="#3c3a41"><path d="M316.945 406.062c0 8.402-6.601 15.005-15.005 15.005-18.004 0-34.911-8.103-46.014-20.706v-54.317c8.404 0 15.005 6.601 15.005 15.005 0 16.505 14.504 30.009 31.009 30.009 8.404-.001 15.005 6.6 15.005 15.004z"/><path d="M316.945 316.034c0 33.009-28.01 60.018-61.019 60.018V226.007c36.611 0 61.019 59.117 61.019 90.027z"/></g></symbol>
<symbol id="i-leopard" xmlns="http://www.w3.org/2000/svg" viewBox="0 0 512 512"><path d="M357.7 420.099C337.599 457.599 298.599 481 256 481s-81.599-23.401-101.7-60.901l24.901-47.1h153.6l24.899 47.1z" fill="#fedbab"/><path d="M357.7 420.099C337.599 457.599 298.599 481 256 481V372.999h76.8l24.9 47.1z" fill="#fec478"/><circle cx="437" cy="106" r="75" fill="#e4741b"/><path d="M437 151c-24.814 0-45-20.186-45-45s20.186-45 45-45 45 20.186 45 45-20.186 45-45 45z" fill="#994c10"/><circle cx="75" cy="106" r="75" fill="#ff941d"/><path d="M75 151c-24.814 0-45-20.186-45-45s20.186-45 45-45 45 20.186 45 45-20.186 45-45 45z" fill="#bf6015"/><path d="M481 226L358.001 403.599 256 376l-90 30L31 226C31 116.199 151.901 31 256 31s225 85.199 225 195z" fill="#ffac46"/><path d="M481 226L358.001 403.599 256 376V31c104.099 0 225 85.199 225 195z" fill="#ff941d"/><path d="M425.501 144.099C394 123.1 358.001 118.6 327.1 131.199 293.5 145 271 177.1 271 211c0 26.4 11.7 51.299 31.8 68.399.3.3.3.601.601.601l44.7 37.5c11.7 9.901 17.999 24.3 17.1 39.901-.901 13.2-7.2 25.199-17.1 33.6L260.8 361.9c-1.5-.6-3-.9-4.8-.9s-3.3.3-4.799.899L163.9 391c-10.199-8.401-16.199-20.4-17.1-33.9-.899-15.601 5.4-30.3 17.401-40.201L208.3 280.3c20.699-17.1 32.7-42.301 32.7-69.3 0-33.9-22.5-66-56.1-79.801-31.199-12.9-66.899-8.099-98.401 12.9C52.301 167.199 31 204.099 31 241c0 46.199 32.1 89.7 85.8 117.9v.3c1.8 25.199 15 47.399 36.601 61.199 2.399 1.5 5.099 2.1 7.8 2.1 1.8 0 3.3-.3 4.799-.601l90-30 90 30c4.2 1.5 9 .901 12.599-1.5 21.601-13.5 34.801-35.7 36.301-60.899v-.601c54-28.2 86.1-71.7 86.1-117.9 0-36.599-21.301-73.799-55.499-96.899z" fill="#fe8821"/><path d="M481 241c0 46.199-32.1 89.7-86.1 117.9v.601c-1.5 25.199-14.7 47.399-36.301 60.899-3.6 2.401-8.399 2.999-12.599 1.5l-90-30V361c1.8 0 3.3.3 4.799.899L348.1 391c9.901-8.401 16.199-20.4 17.1-33.6.899-15.601-5.4-30-17.1-39.901l-44.7-37.5c-.3 0-.3-.3-.601-.601C282.7 262.299 271 237.4 271 211c0-33.9 22.5-66 56.1-79.801 30.901-12.599 66.899-8.099 98.401 12.9C459.699 167.199 481 204.399 481 241z" fill="#e4741b"/><path d="M292.599 344.5L271 355.3V376c0 8.399-6.599 15-15 15s-15-6.601-15-15v-20.7l-21.599-10.8c-7.5-3.9-10.501-12.902-6.901-20.101 3.9-7.5 12.9-10.499 20.099-6.899L256 329.2l23.401-11.7c7.2-3.6 16.199-.601 20.099 6.899 3.6 7.2.599 16.201-6.901 20.101z" fill="#57555c"/><path d="M292.599 344.5L271 355.3V376c0 8.399-6.599 15-15 15v-61.8l23.401-11.7c7.2-3.6 16.199-.601 20.099 6.899 3.6 7.2.599 16.201-6.901 20.101z" fill="#3c3a41"/><path d="M61 241c0-26.499 16.567-54.727 42.202-71.924 22.983-15.366 48.589-19.058 70.313-10.151C195.59 167.992 211 189.408 211 211c0 17.952-7.932 34.805-21.78 46.258l-.031.016-44.019 36.401c-11.091 9.159-18.807 20.914-23.465 33.864C83.388 304.896 61 273.435 61 241z" fill="#fedbab"/><path d="M390.205 327.585c-4.594-12.647-12.144-24.13-22.921-33.133l-44.546-37.238C308.921 245.759 301 228.93 301 211c0-21.592 15.41-43.008 37.485-52.075 21.665-8.906 47.256-5.156 70.21 10.239C434.389 186.391 451 214.589 451 241c0 32.459-22.425 63.939-60.795 86.585z" fill="#fec478"/><circle cx="166" cy="226" r="15" fill="#57555c"/><circle cx="346" cy="226" r="15" fill="#3c3a41"/><circle cx="226" cy="106" r="15" fill="#57555c"/><circle cx="286" cy="106" r="15" fill="#3c3a41"/></symbol>
<symbol id="i-lion" xmlns="http://www.w3.org/2000/svg" viewBox="0 0 512.001 512.001"><path d="M422.718 59.538l12.828-2.984c6.266-1.192 10.74-6.562 11.635-12.828.598-6.266-2.686-12.529-8.354-15.215-99.94-47.137-158.214-22.076-182.975-3.58-24.762-18.497-82.737-43.557-182.679 3.58-5.668 2.686-9.248 8.95-8.352 15.215.598 6.266 5.37 11.635 11.337 12.828l13.127 2.984C47.516 82.508-2.304 136.009.083 256.237c0 6.264 3.878 11.634 9.844 13.722 5.668 2.088 12.233.598 16.111-4.177 3.282-3.58 7.458-7.458 11.634-10.441-5.666 42.661-5.27 133.453 71.401 196.998 3.878 3.282 9.248 4.476 14.319 2.686 4.772-1.792 8.651-5.967 9.547-11.04l1.79-7.16c17.603 28.043 51.61 59.368 118.14 73.39.894.298 2.086.298 2.982.298s2.088 0 2.982-.298c66.529-14.023 101.83-45.646 119.433-73.39l1.492 7.16c1.192 5.073 4.774 9.248 9.846 11.04 4.772 1.79 10.142.596 14.319-2.686 76.373-63.544 75.775-154.336 70.109-196.998 4.176 2.982 8.352 6.564 11.634 10.441 4.177 4.774 10.741 6.266 16.408 4.177 5.668-2.088 9.547-7.458 9.846-13.722 2.386-120.227-47.733-173.729-89.202-196.699z" fill="#ff6200"/><path d="M511.918 256.237c-.298 6.264-4.177 11.634-9.846 13.722-5.666 2.088-12.231.598-16.408-4.177-3.282-3.876-7.458-7.458-11.634-10.441 5.666 42.661 6.264 133.453-70.109 196.998-4.177 3.282-9.547 4.476-14.319 2.686-5.071-1.792-8.653-5.967-9.846-11.04l-1.492-7.16c-17.603 27.745-52.904 59.368-119.433 73.39-.894.298-2.086.298-2.982.298V24.93c24.762-18.497 83.035-43.557 182.975 3.58 5.668 2.686 8.951 8.95 8.354 15.215-.896 6.266-5.37 11.635-11.635 12.828l-12.828 2.984c41.472 22.971 91.591 76.473 89.203 196.7z" fill="#eb4f00"/><path d="M331.428 352.896c0 38.783-32.617 70.704-71.699 70.704h-7.757c-39.081 0-70.704-31.921-70.704-70.704l14.917-29.833h120.327l14.916 29.833z" fill="#fe8821"/><path d="M331.428 352.896c0 38.783-32.617 70.704-71.699 70.704h-3.878V323.063h60.661l14.916 29.833z" fill="#e4741b"/><path d="M381.846 262.8l-20.585 31.025v29.237c0 16.408-8.95 31.623-23.567 39.38-14.62 7.755-32.221 6.861-45.944-2.088l-20.982-13.425-14.917-27.745-14.917 27.745-19.987 13.425c-7.458 4.772-16.111 7.458-24.762 7.458-7.16 0-14.618-1.79-21.182-5.37-14.618-7.757-23.567-22.972-23.567-39.38v-29.237L130.852 262.8c-25.656-38.185-28.641-87.411-8.056-128.581 9.547-19.093 26.851-33.413 47.436-38.783 20.883-5.37 42.96-1.79 60.56 10.142 7.757 5.073 16.409 7.757 25.061 7.757 8.651 0 18.299-2.684 26.055-7.757 17.6-11.932 39.677-15.512 60.56-10.142 20.585 5.37 37.889 19.689 47.436 38.783 2.684 5.37 5.071 11.038 6.861 16.707v.298c12.826 37.59 7.158 78.462-14.919 111.576z" fill="#ffac46"/><path d="M381.846 262.8l-20.585 31.025v29.237c0 16.408-8.95 31.623-23.567 39.38-14.62 7.755-32.221 6.861-45.944-2.088l-20.982-13.425-14.917-27.745V113.336c8.651 0 18.299-2.684 26.055-7.757 17.6-11.932 39.677-15.512 60.56-10.142 20.585 5.37 37.889 19.689 47.436 38.783 2.684 5.37 5.071 11.038 6.861 16.707v.298c12.828 37.589 7.16 78.461-14.917 111.575z" fill="#ff941d"/><circle cx="316.51" cy="169.91" r="14.917" fill="#3c3a41"/><circle cx="196.183" cy="169.91" r="14.917" fill="#57555c"/><g fill="#73553a"><path d="M270.768 289.352v57.578l-14.917-9.846-14.917 9.846v-57.578c0-8.354 6.562-14.917 14.917-14.917s14.917 6.562 14.917 14.917z"/><path d="M255.851 214.769c-24.762 0-44.75 19.987-44.75 44.75 0 1.79.298 3.878 1.192 5.668.598 1.79 1.79 3.282 3.283 4.772l29.833 29.833c2.684 2.984 6.562 4.476 10.441 4.476 3.878 0 7.757-1.492 10.441-4.476l30.828-29.833c1.493-1.492 2.686-2.982 3.283-4.772.894-1.79 1.192-3.878 1.192-5.668.001-24.763-20.98-44.75-45.743-44.75z"/></g><g fill="#59422d"><path d="M270.768 289.352v57.578l-14.917-9.846v-62.648c8.355-.001 14.917 6.561 14.917 14.916z"/><path d="M301.595 259.519c0 1.79-.298 3.878-1.192 5.668-.598 1.79-1.79 3.282-3.283 4.772l-30.827 29.833c-2.684 2.984-6.562 4.476-10.441 4.476v-89.499c24.762 0 45.743 19.987 45.743 44.75z"/></g></symbol>
<symbol id="i-panda" xmlns="http://www.w3.org/2000/svg" viewBox="0 0 512 512"><path d="M105 211C47.01 211 0 163.99 0 106S47.01 0 105 0s106 48.01 106 106-48.01 105-106 105z" fill="#57555c"/><path d="M407 211c-57.99 0-106-47.01-106-105S349.01 0 407 0s105 48.01 105 106-47.01 105-105 105z" fill="#3c3a41"/><path d="M472.099 186.099C426.2 108.699 352.599 61 281.8 61h-2.699c-7.5.3-15.3.3-23.101.3-7.2 0-14.7-.3-21.899-.3C163.299 59.5 87.9 107.8 41.4 186.099c-45.6 76.2-52.5 162.401-17.999 223.3C48.9 455.6 110.799 510.5 254.5 512c.599 0 1.199 0 1.5-.3h.601c.899.3 1.5.3 2.399.3 143.701-1.5 205.6-56.4 231.101-102.601 34.498-60.899 27.599-147.1-18.002-223.3z" fill="#e5e5e5"/><path d="M490.101 409.399C464.599 455.6 402.7 510.5 258.999 512c-.899 0-1.5 0-2.399-.3h-.601V61.3c7.8 0 15.601 0 23.101-.3h2.699c70.8 0 144.401 47.699 190.3 125.099 45.601 76.2 52.5 162.401 18.002 223.3z" fill="#d9d9d9"/><path d="M93.442 320.633c-30.082-30.052-23.798-83.257 10.605-117.66 35.083-35.098 88.437-39.873 117.675-10.605 29.238 29.238 24.478 82.577-10.605 117.66-37.054 37.054-90.102 38.209-117.675 10.605z" fill="#787780"/><path d="M300.883 310.027c-35.083-35.083-39.844-88.422-10.605-117.66s82.592-24.492 117.675 10.605c34.416 34.416 40.676 87.62 10.605 117.66-27.712 27.713-80.778 26.32-117.675-10.605z" fill="#57555c"/><path d="M362 392c0 32.999-28.001 60-61 60-17.999 0-33.9-8.101-45-20.7-11.1 12.599-27.001 20.7-45 20.7-32.999 0-60-27.001-60-60 0-8.401 6.599-15 15-15s15 6.599 15 15c0 16.5 13.5 30 30 30s30-13.5 30-30c0-8.401 6.599-15 15-15s15 6.599 15 15c0 16.5 13.5 30 30 30s31-13.5 31-30c0-8.401 6.599-15 15-15s15 6.599 15 15z" fill="#787780"/><g fill="#57555c"><path d="M362 392c0 32.999-28.001 60-61 60-17.999 0-33.9-8.101-45-20.7V377c8.401 0 15 6.599 15 15 0 16.5 13.5 30 30 30s31-13.5 31-30c0-8.401 6.599-15 15-15s15 6.599 15 15z"/><circle cx="158.08" cy="256" r="15"/></g><circle cx="354.92" cy="256" r="15" fill="#3c3a41"/><path d="M256 317c-24.901 0-45 20.099-45 45 0 24.899 20.099 45 45 45s45-20.101 45-45c0-24.901-20.099-45-45-45z" fill="#57555c"/><path d="M301 362c0 24.899-20.099 45-45 45v-90c24.901 0 45 20.099 45 45z" fill="#3c3a41"/></symbol>
<symbol id="i-parrot" xmlns="http://www.w3.org/2000/svg" viewBox="0 0 512 512"><path d="M226 512c-8.291 0-15-6.709-15-15v-85.082c0-8.291 6.709-15 15-15s15 6.709 15 15V497c0 8.291-6.709 15-15 15z" fill="#fedb41"/><path d="M316 512c-8.291 0-15-6.709-15-15v-61c0-8.291 6.709-15 15-15s15 6.709 15 15v61c0 8.291-6.709 15-15 15z" fill="#fcbf29"/><path d="M30 30v30c0 49.706 41.294 90 91 90h30V30H30z" fill="#eb4f00"/><path d="M121 90H15C6.716 90 0 83.284 0 75 0 33.579 33.579 0 75 0h46l15 10.761V78.28L121 90z" fill="#ff6200"/><path d="M391 135v316h-75c-21 0-41.1-3.3-60-9.3-78.3-25.201-135-99-135-185.7V0h135c74.7 0 135 60.3 135 135z" fill="#10bb67"/><path d="M391 135v316h-75c-21 0-41.1-3.3-60-9.3V0c74.7 0 135 60.3 135 135z" fill="#0ca656"/><path d="M256 60c-41.4 0-75 33.6-75 75s33.6 75 75 75 75-33.6 75-75-33.6-75-75-75z" fill="#fedb41"/><path d="M331 135c0 41.4-33.6 75-75 75V60c41.4 0 75 33.6 75 75z" fill="#fcbf29"/><path d="M512 436c0-24.853-20.147-45-45-45h-14.727l-1.472-10.8c-4.501-24.302-24.701-43.5-49.001-48.001l-10.199-1.8-1.8-10.199c-5.4-29.702-30.601-49.2-59.101-49.2-35.099 0-59.7 30.3-59.7 63.3 0 59.399 45.601 115.499 120 116.7h106c8.748 0 15-7.561 15-15z" fill="#10bb67"/><path d="M271 135c0 8.399-6.599 15-15 15s-15-6.601-15-15c0-8.401 6.599-15 15-15s15 6.599 15 15z" fill="#57555c"/><path d="M271 135c0 8.399-6.599 15-15 15v-30c8.401 0 15 6.599 15 15z" fill="#3c3a41"/><path d="M512 497c0 8.399-6.599 15-15 15H16c-8.401 0-15-6.601-15-15 0-8.401 6.599-15 15-15h481c8.401 0 15 6.599 15 15z" fill="#896748"/><path d="M512 497c0 8.399-6.599 15-15 15H256v-30h241c8.401 0 15 6.599 15 15z" fill="#73553a"/></symbol>
<symbol id="i-rabbit" xmlns="http://www.w3.org/2000/svg" viewBox="0 0 512 512"><path d="M182.649 299.832c-52.726-23.571-93.946-65.963-116.066-119.364-22.692-54.764-23-116.065-.881-171.048a15.035 15.035 0 018.18-8.268 14.88 14.88 0 0111.624.059c54.529 23.219 97.054 67.047 119.745 121.826 22.002 53.107 22.941 111.947 2.639 165.671a14.97 14.97 0 01-9.602 9.029c-4.262 3.513-10.356 4.465-15.639 2.095z" fill="#72ecff"/><path d="M305.868 293.222c-22.119-54.984-21.812-115.421.88-170.185C329.44 68.257 371.964 24.43 426.493 1.21a15.078 15.078 0 0111.624-.059 15.032 15.032 0 018.18 8.268c22.119 54.984 21.812 116.285-.88 171.049-22.692 54.779-65.216 97.743-119.745 120.962-7.549 3.245-16.592-.258-19.804-8.208z" fill="#00e2ff"/><path d="M88.19 35.673c-13.544 43.477-11.492 90.793 6.127 133.303 17.561 42.407 49.033 76.796 89.329 97.977 13.5-43.448 11.419-90.047-6.127-132.425C159.899 92.005 128.5 56.84 88.19 35.673z" fill="#fedbab"/><path d="M423.811 35.673c-40.311 21.167-71.709 56.332-89.329 98.856-17.619 42.509-19.671 88.962-6.127 132.44 40.311-21.167 71.709-55.468 89.329-97.992 17.619-42.51 19.671-89.827 6.127-133.304z" fill="#fec478"/><path d="M402.501 321.668c-9.607-7.505-15.912-20.714-17.413-36.024l-1.501-15.01C378.785 203.988 322.644 151.752 256 151.752s-122.785 52.236-127.587 118.882c0 .9-.601 6.904-1.501 14.71-1.501 15.31-7.805 28.52-17.413 36.324-27.919 22.515-39.627 58.54-30.622 93.964 6.606 25.218 25.218 47.132 49.835 58.24 15.91 6.906 27.919 7.805 38.726 8.407 13.509.9 24.918 1.501 45.632 16.21 12.608 8.707 27.318 13.509 42.929 13.509s30.321-4.802 42.929-13.509c20.714-14.71 32.423-15.61 45.932-16.21 10.807-.902 23.115-1.501 38.726-8.707 24.617-11.108 43.23-33.022 49.535-58.539 2.099-7.805 3.001-15.612 3.001-23.417.001-27.016-12.007-52.535-33.621-69.948z" fill="#bbfbfd"/><path d="M436.123 391.617c0 7.805-.902 15.612-3.001 23.417-6.305 25.516-24.918 47.431-49.535 58.539-15.612 7.207-27.919 7.805-38.726 8.707-13.509.601-25.218 1.501-45.932 16.21C286.322 507.198 271.611 512 256 512V151.753c66.645 0 122.785 52.236 127.587 118.882l1.501 15.01c1.501 15.309 7.805 28.519 17.413 36.024 21.614 17.412 33.622 42.931 33.622 69.948z" fill="#72ecff"/><path d="M296.527 387.414l-25.516 25.819v83.756c0 8.407-6.604 15.01-15.01 15.01-8.407 0-15.01-6.604-15.01-15.01v-83.755l-25.516-25.819c-6.004-5.704-6.004-15.308 0-21.013 5.704-6.004 15.309-6.004 21.013 0l19.514 19.212 19.514-19.212c5.704-6.004 15.309-6.004 21.013 0 6.003 5.703 6.003 15.308-.002 21.012z" fill="#fe73b1"/><circle cx="195.955" cy="286.847" r="15.01" fill="#664b34"/><circle cx="316.037" cy="286.847" r="15.01" fill="#59422d"/><path d="M296.527 387.414l-25.516 25.819v83.756c0 8.407-6.604 15.01-15.01 15.01V385.612l19.514-19.212c5.704-6.004 15.309-6.004 21.013 0 6.004 5.705 6.004 15.31-.001 21.014z" fill="#fe52a2"/></symbol>
<symbol id="i-raccoon" xmlns="http://www.w3.org/2000/svg" viewBox="0 0 511.998 511.998"><path d="M182.886 231.725c-58.704 0-104.8-16.465-137.056-48.97-15.512-15.659-27.461-34.411-35.496-55.743-6.568-18.62-13.4-44.424-8.87-81.679a15.038 15.038 0 0113.093-13.092c37.284-4.472 63.044 2.302 81.371 8.753 21.64 8.152 40.392 20.101 56.051 35.598 33.105 32.871 49.57 80.051 48.955 140.252-.088 8.181-6.686 14.779-14.867 14.867-1.055.014-2.125.014-3.181.014z" fill="#aeadb3"/><path d="M329.114 231.718c-1.07 0-2.126 0-3.182-.015-8.181-.088-14.779-6.686-14.867-14.867-.616-60.2 15.849-107.381 48.955-140.237 15.659-15.512 34.411-27.461 55.743-35.496 18.621-6.569 44.425-13.327 81.679-8.87a15.038 15.038 0 0113.093 13.093c4.53 37.284-2.316 63.074-8.768 81.385-8.137 21.611-20.072 40.363-35.584 56.036-32.268 32.506-78.378 48.971-137.069 48.971z" fill="#8b8892"/><path d="M30.231 61.007c-1.261 24.382 3.387 41.741 8.313 55.729 6.422 17.036 16.098 32.241 28.619 44.879 24.587 24.793 58.558 37.886 103.51 39.835-1.95-44.952-15.042-78.908-39.835-103.525-12.638-12.506-27.842-22.183-45.186-28.722-13.71-4.824-31.039-9.457-55.421-8.196z" fill="#787780"/><path d="M473.808 60.795c-20.277 0-35.348 4.15-47.768 8.519-17.036 6.422-32.241 16.098-44.879 28.619-24.793 24.602-37.886 58.558-39.835 103.51 44.967-1.95 78.923-15.042 103.525-39.835 12.521-12.638 22.168-27.842 28.708-45.186 4.838-13.708 9.471-31.024 8.21-55.42a146.359 146.359 0 00-7.961-.207z" fill="#57555c"/><path d="M510.927 346.979s-.3 0-.3.3l-119.205-24.923-9.308 66.961c-22.82 12.911-46.541 32.428-68.462 61.855-13.811 18.617-34.83 29.125-57.65 29.125s-43.84-10.508-57.65-29.125c-19.217-25.823-42.639-45.04-69.662-59.454l-30.327-72.063-97.288 27.323c-3.903-77.169 23.122-152.835 74.767-207.184 48.042-51.045 111.999-78.97 180.16-78.97s132.119 27.925 180.16 78.97c51.644 54.35 78.669 130.017 74.765 207.185z" fill="#aeadb3"/><path d="M510.927 346.979s-.3 0-.3.3l-119.205-24.923-9.308 66.961c-22.82 12.911-46.541 32.428-68.462 61.855-13.811 18.617-34.83 29.125-57.65 29.125V60.826c68.162 0 132.119 27.925 180.16 78.97 51.644 54.348 78.669 130.015 74.765 207.183z" fill="#8b8892"/><g fill="#57555c"><path d="M271.014 421.147v45.04c0 8.409-6.605 15.013-15.013 15.013-8.409 0-15.013-6.605-15.013-15.013v-45.04c0-8.409 6.605-15.013 15.013-15.013 8.408-.001 15.013 6.604 15.013 15.013z"/><path d="M256 338.573c-24.923 0-45.04 20.117-45.04 45.04 0 3.303 1.2 6.605 3.303 9.308l30.027 37.533c2.703 3.603 7.206 5.705 11.71 5.705 4.504 0 9.008-2.102 11.71-5.705l30.027-37.533c2.102-2.703 3.303-6.005 3.303-9.308 0-24.923-20.117-45.04-45.04-45.04z"/></g><g fill="#3c3a41"><path d="M271.014 421.147v45.04c0 8.409-6.605 15.013-15.013 15.013v-75.067c8.408 0 15.013 6.605 15.013 15.014z"/><path d="M301.04 383.613c0 3.303-1.2 6.605-3.303 9.308l-30.027 37.533c-2.703 3.603-7.206 5.705-11.71 5.705v-97.587c24.923.001 45.04 20.118 45.04 45.041z"/></g><path d="M188.543 199.655c-22.256-10.483-47.02-9.486-68 2.727-56.052 32.59-98.124 84.508-119.338 144.564a15.038 15.038 0 0010.784 13.589c.851.249 3.387.689 7.434 1.026 2.847.238 5.535.717 8.342 1.015 26.225 2.783 50.796 8.126 73.315 16.553 9.567 3.579 18.683 7.835 27.504 12.524 11.96-34.11 37.264-62.74 70.868-78.241 22.945-10.6 35.686-33.707 31.698-57.649-4.091-24.513-20.014-45.493-42.607-56.108z" fill="#787780"/><g fill="#57555c"><path d="M391.458 202.382c-20.966-12.199-45.744-13.196-67.986-2.741a75.853 75.853 0 00-42.636 56.241c-3.974 23.795 8.797 46.932 31.786 57.561 30.212 13.952 56.37 41.208 69.455 75.879 9.28-5.275 18.403-9.506 27.243-12.849 31.282-11.829 58.644-13.144 74.829-14.154 1.129-.07 2.338-.143 3.356-.214 5.894-.425 9.442-.675 12.521-1.568 6.007-1.773 10.184-7.087 10.665-13.309-21.06-60.478-62.682-111.964-119.233-144.846z"/><circle cx="165.918" cy="255.997" r="15.013"/></g><circle cx="346.078" cy="255.997" r="15.013" fill="#3c3a41"/></symbol>
<symbol id="i-reindeer" xmlns="http://www.w3.org/2000/svg" viewBox="0 0 512 512"><path d="M407 331h-30c-8.291 0-15-6.709-15-15 0-41.353 33.647-75 75-75h30c8.291 0 15 6.709 15 15 0 41.353-33.647 75-75 75z" fill="#73553a"/><path d="M394.563 301H407c19.556 0 36.24-12.539 42.437-30H437c-19.556 0-36.24 12.539-42.437 30z" fill="#fec478"/><path d="M136 331h-30c-41.353 0-75-33.647-75-75 0-8.291 6.709-15 15-15h30c41.353 0 75 33.647 75 75 0 8.291-6.709 15-15 15z" fill="#896748"/><path d="M63.563 271c6.196 17.461 22.881 30 42.437 30h12.437C112.24 283.539 95.556 271 76 271H63.563z" fill="#fedbab"/><path d="M209.96 206.547l-15.015-38.071C183.563 139.633 155.186 120 124.175 120H90V88.482c34.191-6.969 60-37.266 60-73.482 0-8.291-6.709-15-15-15s-15 6.709-15 15c0 19.53-12.578 36.024-30 42.237V15c0-8.291-6.709-15-15-15S60 6.709 60 15v102.237C42.578 111.024 30 94.53 30 75c0-8.291-6.709-15-15-15S0 66.709 0 75c0 41.353 33.647 75 75 75h49.175c18.604 0 36.039 12.177 42.851 29.491l15.015 38.071c2.329 5.889 7.983 9.492 13.96 9.492a15.23 15.23 0 005.508-1.04c7.704-3.046 11.483-11.762 8.451-19.467z" fill="#664b34"/><path d="M497 60c-8.291 0-15 6.709-15 15 0 19.53-12.578 36.024-30 42.237V15c0-8.291-6.709-15-15-15s-15 6.709-15 15v42.237C404.578 51.024 392 34.53 392 15c0-8.291-6.709-15-15-15s-15 6.709-15 15c0 36.216 25.809 66.513 60 73.482V120h-34.175c-31.011 0-59.389 19.633-70.771 48.476l-15.015 38.071c-3.032 7.705.747 16.421 8.452 19.468a15.227 15.227 0 005.508 1.04c5.977 0 11.631-3.604 13.96-9.492l16.015-38.071C352.786 162.177 369.222 150 387.825 150H437c41.353 0 75-33.647 75-75 0-8.291-6.709-15-15-15z" fill="#59422d"/><path d="M390.5 295.6c-8.701-58.801-58.9-106.8-118.301-113.699A146.314 146.314 0 00256 181c-33.3 0-64.799 12.001-89.7 34.2C137.5 240.7 121 277.599 121 316c0 24.3 6.599 48.999 18.9 69.699C147.1 398 151 411.501 151 425.9c0 47.401 38.699 86.1 86.1 86.1h37.8c47.401 0 87.1-38.699 87.1-86.1v-.901c0-13.2 3.9-26.699 12.001-40.499C384.2 366.501 390.2 346 391.7 325.6c.6-9.9.3-20.099-1.2-30z" fill="#a07854"/><path d="M391.7 325.6c-1.5 20.4-7.5 40.901-17.699 58.9C365.9 398.301 362 411.799 362 424.999v.901c0 47.401-39.699 86.1-87.1 86.1H256V181c5.4 0 10.8.3 16.199.901C331.601 188.8 381.799 236.8 390.5 295.6c1.5 9.901 1.8 20.1 1.2 30z" fill="#896748"/><circle cx="316" cy="316" r="15" fill="#3c3a41"/><g fill="#57555c"><circle cx="196" cy="316" r="15"/><path d="M301 407c0 19.501-12.599 36-30 42.299V497c0 8.401-6.599 15-15 15s-15-6.599-15-15v-47.701C223.599 443 211 426.501 211 407c0-8.401 6.599-15 15-15s15 6.599 15 15 6.599 15 15 15 15-6.599 15-15 6.599-15 15-15 15 6.599 15 15z"/></g><path d="M301 407c0 19.501-12.599 36-30 42.299V497c0 8.401-6.599 15-15 15v-90c8.401 0 15-6.599 15-15s6.599-15 15-15 15 6.599 15 15z" fill="#3c3a41"/></symbol>
<symbol id="i-rhinoceros" xmlns="http://www.w3.org/2000/svg" viewBox="0 0 512 512"><path d="M412.19 189.799c-20.038 0-38.876-7.808-53.025-21.972-5.859-5.859-5.859-15.352 0-21.21l84.841-84.841c5.859-5.859 15.352-5.859 21.21 0 14.165 14.15 21.972 32.987 21.972 53.025s-7.808 38.876-21.972 53.025c-14.15 14.166-32.987 21.973-53.026 21.973z" fill="#8b8892"/><path d="M99.764 189.755c-19.203 0-38.407-7.31-53.025-21.928-29.237-29.237-29.237-76.814 0-106.052 5.859-5.859 15.352-5.859 21.21 0l84.855 84.841a14.988 14.988 0 014.395 10.605c0 3.984-1.582 7.793-4.395 10.605-14.618 14.62-33.821 21.929-53.04 21.929z" fill="#aeadb3"/><path d="M392.782 155.42c16.522 7.939 37.895 4.512 51.224-8.804 8.496-8.496 13.184-19.789 13.184-31.815 0-6.826-1.509-13.433-4.38-19.408l-60.028 60.027z" fill="#57555c"/><path d="M59.159 95.408c-7.969 16.728-5.039 37.382 8.789 51.209 13.374 13.33 34.73 16.713 51.238 8.804L59.159 95.408z" fill="#787780"/><path d="M283.405 61.014h-59.998c-74.397 0-134.996 60.597-134.996 134.996v143.795c0 27.899 10.8 54.298 30.9 74.097l29.398 29.699c3.3 38.1 35.399 68.399 74.698 68.399h59.998c39.299 0 71.398-30.299 74.698-68.399l29.398-29.699c20.1-19.798 30.9-46.198 30.9-74.097V196.01c0-74.399-60.598-134.996-134.996-134.996z" fill="#aeadb3"/><path d="M418.401 196.01v143.796c0 27.899-10.8 54.298-30.9 74.097l-29.398 29.699c-3.3 38.1-35.399 68.399-74.698 68.399h-29.999V61.014h29.999c74.398 0 134.996 60.597 134.996 134.996z" fill="#8b8892"/><circle cx="223.402" cy="437.006" r="15" fill="#57555c"/><g fill="#3c3a41"><circle cx="283.41" cy="437.006" r="15"/><circle cx="343.409" cy="226.013" r="15"/></g><circle cx="163.404" cy="226.013" r="15" fill="#57555c"/><path d="M253.406 362.005c-37.799 0-66.299-34.8-58.799-72.299l44.999-277.689c1.501-7.8 7.5-11.7 13.801-12.001 6.899-.3 14.099 3.6 15.6 12.001l43.199 278.29c7.499 37.499-21.301 71.698-58.8 71.698z" fill="#e5e5e5"/><path d="M253.406 362.005V.016c6.899-.3 14.099 3.6 15.6 12.001l43.199 278.29c7.5 37.499-21.3 71.698-58.799 71.698z" fill="#d9d9d9"/></symbol>
<symbol id="i-turtle" xmlns="http://www.w3.org/2000/svg" viewBox="0 0 512 512"><path d="M271 467v30c0 8.399-6.599 15-15 15s-15-6.601-15-15v-30c0-8.401 6.599-15 15-15s15 6.599 15 15z" fill="#73553a"/><path d="M271 467v30c0 8.399-6.599 15-15 15v-60c8.401 0 15 6.599 15 15z" fill="#59422d"/><path d="M191.488 438.963l-67.441-53.013c-4.937-6.621-14.326-7.925-21.006-2.988C76.322 403.016 61 433.646 61 467v30c0 8.291 6.709 15 15 15h30c37.397 0 72.246-20.127 90.981-52.544 4.146-7.163 1.685-16.348-5.493-20.493z" fill="#98cb51"/><path d="M408.959 382.962c-6.665-4.966-16.04-3.633-21.006 2.988l-67.441 53.013c-7.178 4.146-9.639 13.33-5.493 20.493C333.754 491.873 368.603 512 406 512h30c8.291 0 15-6.709 15-15v-30c0-33.354-15.322-63.984-42.041-84.038z" fill="#60c244"/><path d="M106 121C48.109 121 0 168.109 0 226c0 8.291 6.709 15 15 15h71.283l70.313-120H106z" fill="#98cb51"/><path d="M406 121h-50.596l70.313 120H497c8.291 0 15-6.709 15-15 0-57.891-48.109-105-106-105z" fill="#60c244"/><path d="M331 75v41.199c0 8.401-6.599 15-15 15H196c-8.401 0-15-6.599-15-15V75c0-41.4 33.6-75 75-75s75 33.6 75 75z" fill="#98cb51"/><path d="M316 131.199h-60V0c41.4 0 75 33.6 75 75v41.199c0 8.401-6.599 15-15 15z" fill="#60c244"/><path d="M364.3 123.999L351.7 173.2 302.199 262 256 286l-30.901-23.701-78.898-118.2 1.5-20.099C178.599 103.299 215.799 91 256 91s77.401 12.299 108.3 32.999z" fill="#a07854"/><path d="M364.3 123.999L351.7 173.2 302.199 262 256 286V91c40.201 0 77.401 12.299 108.3 32.999z" fill="#896748"/><path d="M451 286c0-67.429-34.422-126.953-86.598-161.984L256 286l63.75 30h82.509L451 286z" fill="#73553a"/><g fill="#896748"><path d="M358.261 452.718C413.804 418.314 451 355.996 451 286H256l22.5 67.463 38.524 81.046 41.237 18.209z"/><path d="M358.299 452.599C328.599 471.2 293.5 482 256 482s-72.599-10.8-102.299-29.401l12.9-50.7 44.099-91L256 286l102.299 166.599z"/></g><path d="M358.299 452.599C328.599 471.2 293.5 482 256 482V286l102.299 166.599z" fill="#73553a"/><path d="M61 286c0 69.996 37.196 132.314 92.739 166.718L256 286l-62.831-30H84.429L61 286z" fill="#a07854"/><path d="M61 286h195L147.598 124.016C95.422 159.047 61 218.571 61 286z" fill="#896748"/><path d="M352.301 277.599l-39.901-60c-2.701-4.2-7.5-6.599-12.599-6.599H212.2c-5.099 0-9.899 2.399-12.599 6.599l-39.901 60c-3.6 5.101-3.6 11.7 0 16.8l39.901 61c2.701 4.2 7.5 6.601 12.599 6.601h87.601c5.099 0 9.899-2.401 12.599-6.601l39.901-61c3.6-5.099 3.6-11.699 0-16.8z" fill="#73553a"/><path d="M352.301 294.399l-39.901 61c-2.701 4.2-7.5 6.601-12.599 6.601H256V211h43.801c5.099 0 9.899 2.399 12.599 6.599l39.901 60c3.6 5.101 3.6 11.701 0 16.8z" fill="#59422d"/></symbol>
<symbol id="i-wolf" xmlns="http://www.w3.org/2000/svg" viewBox="0 0 512.001 512.001"><path d="M76 260.43a14.999 14.999 0 01-15-15V45.065c0-17.461 9.771-33.003 25.503-40.562 15.732-7.573 33.955-5.479 47.607 5.42l67.852 55.272a15.057 15.057 0 015.552 10.254 14.972 14.972 0 01-3.457 11.118L87.47 255.084A14.974 14.974 0 0176 260.43z" fill="#787780"/><path d="M91 45.065c0-5.918 3.179-10.972 8.496-13.521 2.139-1.025 4.336-1.538 6.563-1.538 3.354 0 6.577 1.157 9.331 3.369l56.938 46.542L91 197.31V45.065z" fill="#e5e5e5"/><path d="M436 260.43c-4.336 0-8.569-1.89-11.47-5.347L307.943 86.568a14.972 14.972 0 01-3.457-11.118 15.053 15.053 0 015.552-10.254L377.89 9.924c13.652-10.898 31.86-12.993 47.607-5.42C441.229 12.062 451 27.604 451 45.065V245.43a15 15 0 01-15 15z" fill="#57555c"/><path d="M339.76 79.844l56.865-46.498c2.74-2.183 5.963-3.34 9.302-3.34 2.241 0 4.438.513 6.563 1.538 5.332 2.549 8.511 7.603 8.511 13.521v152.362L339.76 79.844z" fill="#d9d9d9"/><path d="M481 286.001v151c0 4.799-2.401 9.3-6.301 12.299-3.9 2.701-9 3.6-13.499 1.8l-62.1-20.7 9.899 32.1c1.8 5.4.3 11.4-3.9 15.3-4.199 4.2-10.499 5.099-15.599 3.3l-67.8-25.499H256l-66.301-.3-78.9 25.8c-5.099 1.8-10.8.601-15-2.999-3.898-3.6-5.7-9.3-4.499-14.399l7.5-31.802-47.1 18.9c-4.799 2.1-9.901 1.501-14.101-1.199C33.401 446.601 31 442.1 31 437.001v-151c0-124.2 100.8-225 225-225s225 100.8 225 225z" fill="#8b8892"/><path d="M481 286.001v151c0 4.799-2.401 9.3-6.301 12.299-3.9 2.701-9 3.6-13.499 1.8l-62.1-20.7 9.899 32.1c1.8 5.4.3 11.4-3.9 15.3-4.199 4.2-10.499 5.099-15.599 3.3l-67.8-25.499H256v-394.6c124.2 0 225 100.8 225 225z" fill="#787780"/><path d="M391 226.301c-1.5-36.901-27.9-68.701-62.401-74.401-22.2-3.3-44.399 2.701-61.199 17.1-4.2 3.6-8.101 7.5-11.4 12.001-3.3-4.501-7.2-8.401-11.4-12.001-16.8-14.399-39-20.4-61.199-17.1C148.9 157.6 122.5 189.4 121 226.301c-18.6 14.099-30 36.299-30 59.7v61c0 8.399 6.599 15 15 15h47.701l15.899 79.2c8.1 41.1 44.399 70.8 86.4 70.8s78.3-29.7 86.4-70.8l15.899-79.2H406c8.401 0 15-6.601 15-15v-61c0-23.401-11.4-45.601-30-59.7z" fill="#e5e5e5"/><path d="M421 286.001v61c0 8.399-6.599 15-15 15h-47.701l-15.899 79.2c-8.1 41.1-44.399 70.8-86.4 70.8v-331c3.3-4.501 7.2-8.401 11.4-12.001 16.8-14.399 39-20.4 61.199-17.1C363.1 157.6 389.5 189.4 391 226.301c18.6 14.099 30 36.299 30 59.7z" fill="#d9d9d9"/><g fill="#787780"><path d="M271 452.001v45c0 8.399-6.599 15-15 15s-15-6.601-15-15v-45c0-8.401 6.599-15 15-15s15 6.599 15 15z"/><path d="M256 369.501c-24.901 0-45 20.099-45 45 0 3.3 1.199 6.599 3.3 9.3l30 37.5c2.701 3.6 7.2 5.7 11.7 5.7 4.5 0 9-2.1 11.7-5.7l30-37.5c2.1-2.701 3.3-6 3.3-9.3 0-24.901-20.099-45-45-45z"/></g><circle cx="196" cy="286.001" r="15" fill="#57555c"/><circle cx="316" cy="286.001" r="15" fill="#3c3a41"/><g fill="#57555c"><path d="M301 414.501c0 3.3-1.199 6.599-3.3 9.3l-30 37.5c-2.701 3.6-7.2 5.7-11.7 5.7v-97.5c24.901 0 45 20.099 45 45z"/><path d="M271 452.001v45c0 8.399-6.599 15-15 15v-75c8.401 0 15 6.599 15 15z"/></g></symbol>
<symbol id="i-zebra" xmlns="http://www.w3.org/2000/svg" viewBox="0 0 512.001 512.001"><path d="M377.17 193.931a136.51 136.51 0 01-15.029-.82 15.014 15.014 0 01-13.271-13.271c-4.512-40.986 9.595-81.196 38.73-110.303 29.106-29.136 69.434-43.169 110.303-38.73a15.014 15.014 0 0113.271 13.271c4.512 40.986-9.595 81.196-38.73 110.303-25.533 25.561-59.62 39.55-95.274 39.55z" fill="#3c3a41"/><path d="M481.994 59.986c-27.407.234-53.54 11.104-73.184 30.762-19.658 19.644-30.527 45.776-30.762 73.184 27.407-.234 53.54-11.104 73.184-30.762 19.658-19.644 30.527-45.777 30.762-73.184z" fill="#d9d9d9"/><path d="M134.83 193.938c-35.654 0-69.727-13.989-95.273-39.551C10.421 125.281-3.685 85.071.826 44.085a15.014 15.014 0 0113.271-13.271c40.986-4.468 81.196 9.609 110.303 38.73 29.136 29.106 43.242 69.316 38.73 110.303a15.014 15.014 0 01-13.271 13.271c-5.024.557-10.048.82-15.029.82zm13.389-15.732h.293-.293z" fill="#57555c"/><g fill="#e5e5e5"><path d="M148.219 178.206h.293-.293zM30.006 59.993c.234 27.407 11.104 53.54 30.762 73.184 19.644 19.658 45.776 30.527 73.184 30.762-.234-27.407-11.104-53.54-30.762-73.184-19.644-19.658-45.777-30.527-73.184-30.762z"/><path d="M421 225v15l-15 15 11.7 15c-1.8 10.199-4.801 20.4-8.701 30L376 315l17.999 15c-.298.3-.599.899-.599 1.199l-19.801 30.399c-7.8 11.7-11.699 24.901-12.299 38.701l-30.901 11.1C310 391 283.001 380.799 256 380.799S202 391 181.601 411.4L150.7 400.3c-.601-13.801-4.499-27.001-12.299-38.701L118.6 331.2c0-.3-.3-.899-.599-1.199L136 315l-32.999-15c-3.9-9.6-6.901-19.801-8.701-30l41.7-15-45-15v-15c0-5.101.601-9.901 1.199-15L133 195l-35.402-15c14.702-51.901 54.001-94.501 107.1-111.901h102.601c53.099 17.401 92.399 60 107.1 111.901l-37.5 15 42.9 15c.6 5.099 1.201 9.899 1.201 15z"/></g><path d="M421 225v15l-15 15 11.7 15c-1.8 10.199-4.801 20.4-8.701 30L376 315l17.999 15c-.298.3-.599.899-.599 1.199l-19.801 30.399c-7.8 11.7-11.699 24.901-12.299 38.701l-30.901 11.1C310 391 283.001 380.799 256 380.799v-312.7h51.301C360.4 85.5 399.7 128.099 414.401 180l-37.5 15 42.9 15c.598 5.099 1.199 9.899 1.199 15z" fill="#d9d9d9"/><g fill="#787780"><path d="M314.2 16.5C305.501 6 292.899 0 279.401 0h-46.802c-13.499 0-26.1 6-34.799 16.5s-12.001 24-9.3 37.2l16.8 84.901c4.799 24 26.1 41.4 50.7 41.4s45.901-17.401 50.7-41.4L323.5 53.7c2.701-13.201-.601-26.701-9.3-37.2zM211 315c0-8.291-6.709-15-15-15h-93.098c4.111 10.402 8.965 20.524 15.183 30H196c8.291 0 15-6.709 15-15z"/></g><g fill="#57555c"><path d="M301 315c0 8.291 6.709 15 15 15h77.915c6.218-9.476 11.072-19.598 15.183-30H316c-8.291 0-15 6.709-15 15zM302.011 195c0 8.291 6.709 15 15 15h102.797c-.934-10.27-2.673-20.295-5.414-30h-97.383c-8.291 0-15 6.709-15 15z"/></g><g fill="#787780"><path d="M208.1 195c0-8.291-6.709-15-15-15H97.606c-2.741 9.705-4.481 19.73-5.414 30H193.1c8.291 0 15-6.709 15-15zM151 255c0-8.291-6.709-15-15-15H91.029c.026 10.164 1.28 20.145 3.126 30H136c8.291 0 15-6.709 15-15z"/></g><path d="M376 240c-8.291 0-15 6.709-15 15s6.709 15 15 15h41.845c1.846-9.855 3.1-19.836 3.126-30H376z" fill="#57555c"/><path d="M361.3 400.3c0 .899-.3 1.8-.3 2.999V437c0 1.8-.3 3.6-.601 5.7C357.4 481.399 325.3 512 286 512h-60c-39.3 0-71.4-30.601-74.399-69.3-.3-2.1-.601-3.9-.601-5.7v-33.701c0-1.199-.3-2.1-.3-2.999l9.901-9.901c26.4-26.4 60.899-39.6 95.4-39.6s69 13.2 95.4 39.6l9.899 9.901z" fill="#787780"/><circle cx="226" cy="437" r="15" fill="#57555c"/><circle cx="316" cy="255" r="15" fill="#3c3a41"/><g fill="#57555c"><circle cx="196" cy="255" r="15"/><path d="M256 180V0h23.401c13.499 0 26.1 6 34.799 16.5s12.001 24 9.3 37.2l-16.8 84.9c-4.799 23.999-26.1 41.4-50.7 41.4zM361.3 400.3c0 .899-.3 1.8-.3 2.999V437c0 1.8-.3 3.6-.601 5.7C357.4 481.399 325.3 512 286 512h-30V350.799c34.501 0 69 13.2 95.4 39.6l9.9 9.901z"/></g><circle cx="286" cy="437" r="15" fill="#3c3a41"/></symbol>
</svg>