<?xml version="1.0" encoding="iso-8859-1"?>
<!-- Generator: Adobe Illustrator 19.0.0, SVG Export Plug-In . SVG Version: 6.00 Build 0)  -->
<svg version="1.1" id="Capa_1" xmlns="http://www.w3.org/2000/svg" xmlns:xlink="http://www.w3.org/1999/xlink" x="0px" y="0px"
	 viewBox="0 0 512 512" style="enable-background:new 0 0 512 512;" xml:space="preserve">
<path style="fill:#A07854;" d="M134.405,182.007h-119.4c-8.291,0-15,6.709-15,15c0,41.352,41.37,74.998,90.998,74.998
	c6.401,0,12.642-0.542,18.647-1.597l39.755-73.401C149.405,188.716,142.696,182.007,134.405,182.007z"/>
<path style="fill:#896748;" d="M496.995,182.007H375.997l24.755,88.401c6.006,1.055,12.246,1.597,18.647,1.597
	c49.628,0,92.595-33.646,92.595-74.998C511.994,188.716,505.285,182.007,496.995,182.007z"/>
<path style="fill:#73553A;" d="M152.818,199.423c-3.486,0-6.943-1.318-9.712-4.102C92.511,144.728,84.793,64.755,123.522,6.691
	c4.556-6.899,13.887-8.774,20.801-4.16c6.899,4.6,8.76,13.916,4.16,20.801c-30.819,46.215-24.682,110.265,14.604,149.551
	c5.859,5.859,6.475,15.967,0.615,21.826C160.626,197.783,156.7,199.423,152.818,199.423z"/>
<path style="fill:#59422D;" d="M357.116,198.808c-3.765,0-7.471-1.318-10.239-4.072c-5.874-5.83-6.519-14.678-0.703-20.566
	c40.546-40.575,46.698-104.625,15.894-150.84c-4.6-6.899-2.739-16.201,4.16-20.801c6.87-4.614,16.187-2.739,20.801,4.16
	c38.715,58.08,30.98,138.052-18.369,187.401C365.582,197.169,361.32,198.808,357.116,198.808z"/>
<path style="fill:#FEDBAB;" d="M391.898,362.902c-24.301,35.999-30.6,47.099-31.801,64.8C356.199,475.1,317.198,512,271,512h-31.198
	c-46.2,0-85.499-36.9-89.099-84.298c-1.5-17.701-7.8-28.8-32.099-64.8c-24.299-36.298-33.299-79.797-24.299-119.096
	c1.201-6,3.3-10.8,5.101-16.201l81.297-27.598h149.098l81.597,27.3c1.8,5.4,3.6,10.499,5.099,16.5
	C425.196,283.105,416.495,326.605,391.898,362.902z"/>
<path style="fill:#FFAC46;" d="M411.396,227.307c-34.498-2.1-63.299,13.2-81.597,32.698c-19.501,20.7-29.999,48-29.999,76.498v15
	c0,21-15,39-35.399,43.199c-2.401,0.3-4.801,0.601-7.202,0.601c-0.298,0-0.599,0.3-1.199,0.3c-0.3,0-0.3,0-0.601,0
	c-0.3,0-0.599,0-0.599,0c-0.601,0-0.901-0.3-1.501-0.3c-2.098,0-4.499-0.3-6.899-0.601c-20.4-4.199-35.399-22.2-35.399-43.199v-15
	c0-28.498-10.8-55.799-30.299-76.498c-18.3-19.799-47.099-34.798-81.297-32.4c3.6-11.1,8.399-21.599,14.399-29.699
	c9-12.299,20.4-21.299,34.498-27.298c37.201-15.901,77.999-19.2,106.199-19.2h1.5c28.199,0,69.299,3.3,106.498,19.2
	c14.101,6,25.5,15,34.5,27.298C402.997,206.006,407.496,216.207,411.396,227.307z"/>
<path style="fill:#FEC478;" d="M391.898,362.902c-24.301,35.999-30.6,47.099-31.801,64.8C356.199,475.1,317.198,512,271,512h-15
	V200.006h73.799l81.597,27.3c1.8,5.4,3.6,10.499,5.099,16.5C425.196,283.105,416.495,326.605,391.898,362.902z"/>
<path style="fill:#FE8821;" d="M411.396,227.307c-34.498-2.1-63.299,13.2-81.597,32.698c-19.501,20.7-29.999,48-29.999,76.498v15
	c0,21-15,39-35.399,43.199c-2.401,0.3-4.801,0.601-7.202,0.601c-0.298,0-0.599,0.3-1.199,0.3V151.408
	c28.199,0,69.299,3.3,106.498,19.2c14.101,6,25.5,15,34.5,27.298C402.997,206.006,407.496,216.207,411.396,227.307z"/>
<circle style="fill:#57555C;" cx="151.006" cy="287.004" r="15"/>
<circle style="fill:#896748;" cx="226.004" cy="437" r="15"/>
<circle style="fill:#73553A;" cx="286.003" cy="437" r="15"/>
<circle style="fill:#3C3A41;" cx="359.672" cy="287.004" r="15"/>
<g>
</g>
<g>
</g>
<g>
</g>
<g>
</g>
<g>
</g>
<g>
</g>
<g>
</g>
<g>
</g>
<g>
</g>
<g>
</g>
<g>
</g>
<g>
</g>
<g>
</g>
<g>
</g>
<g>
</g>
</svg>
