<?xml version="1.0" encoding="iso-8859-1"?>
<!-- Generator: Adobe Illustrator 19.0.0, SVG Export Plug-In . SVG Version: 6.00 Build 0)  -->
<svg version="1.1" id="Capa_1" xmlns="http://www.w3.org/2000/svg" xmlns:xlink="http://www.w3.org/1999/xlink" x="0px" y="0px"
	 viewBox="0 0 512 512" style="enable-background:new 0 0 512 512;" xml:space="preserve">
<path style="fill:#57555C;" d="M163.921,217.727c-19.805-28.374-43.86-43.505-69.7-45.028c-50.99-3.179-89.603,48.705-91.244,50.902
	c-3.97,5.317-3.97,12.612,0,17.93c1.553,2.095,38.627,51.034,87.025,51.034c33.735,0,62.742-23.467,77.361-38.7L163.921,217.727z"/>
<path style="fill:#3C3A41;" d="M509.023,223.601c-1.611-2.153-39.008-52.558-89.589-50.99c-26.484,0.952-51.126,16.113-71.37,45.116
	l-14.092,23.804c1.553,2.095,39.627,51.034,88.025,51.034s85.473-48.939,87.025-51.034
	C512.992,236.213,512.992,228.918,509.023,223.601z"/>
<g>
	<path style="fill:#FEC478;" d="M507.489,49.909c-4.135-14.652-25.272-13.622-28.865,1.172
		c-7.163,29.496-25.507,56.26-53.624,73.643c-32.644,20.206-75.159,24.217-115.886,6.943l-12.832,24.58
		c28.29,36.316,75.246,53.536,122.216,43.486c42.351-9.062,77.365-42.22,88.938-83.955C513.633,93.431,513.38,70.787,507.489,49.909
		z"/>
	<path style="fill:#FEC478;" d="M4.51,49.909c4.135-14.652,25.272-13.622,28.865,1.172c7.163,29.496,25.507,56.26,53.624,73.643
		c32.644,20.206,75.159,24.217,115.886,6.943l12.832,24.58c-28.29,36.316-75.246,53.536-122.216,43.486
		c-42.351-9.062-77.365-42.22-88.938-83.955C-1.633,93.431-1.381,70.787,4.51,49.909z"/>
</g>
<path style="fill:#787780;" d="M349.599,376.263c-2.999,4.801-7.8,7.2-12.9,7.2L256,382.864l-80.098-0.3
	c-5.101,0-10.201-2.701-12.9-7.2c-74.999-126.299-30-215.997,2.699-235.198c27.9-16.5,59.1-24.901,90.299-24.901
	s61.799,8.401,89.699,24.6C388.897,165.367,419.798,258.965,349.599,376.263z"/>
<g>
	<path style="fill:#57555C;" d="M349.599,376.263c-2.999,4.801-7.8,7.2-12.9,7.2L256,382.864V115.266
		c31.199,0,61.799,8.401,89.699,24.6C388.897,165.367,419.798,258.965,349.599,376.263z"/>
	<circle style="fill:#57555C;" cx="195.997" cy="247.566" r="15"/>
</g>
<circle style="fill:#3C3A41;" cx="315.995" cy="247.566" r="15"/>
<path style="fill:#8B8892;" d="M360.999,412.563c0,16.5-6.599,31.5-17.701,42.298c-10.8,11.1-25.8,17.701-42.298,17.701h-89.999
	c-32.999,0-59.999-27.001-59.999-59.999c0-16.5,6.599-31.5,17.701-42.3c10.8-11.1,25.8-17.699,42.298-17.699h89.999
	C333.998,352.564,360.999,379.563,360.999,412.563z"/>
<path style="fill:#787780;" d="M360.999,412.563c0,16.5-6.599,31.5-17.701,42.298c-10.8,11.1-25.8,17.701-42.298,17.701H256V352.564
	h44.999C333.998,352.564,360.999,379.563,360.999,412.563z"/>
<circle style="fill:#57555C;" cx="225.996" cy="412.564" r="15"/>
<circle style="fill:#3C3A41;" cx="285.996" cy="412.564" r="15"/>
<g>
</g>
<g>
</g>
<g>
</g>
<g>
</g>
<g>
</g>
<g>
</g>
<g>
</g>
<g>
</g>
<g>
</g>
<g>
</g>
<g>
</g>
<g>
</g>
<g>
</g>
<g>
</g>
<g>
</g>
</svg>
