<?xml version="1.0" encoding="iso-8859-1"?>
<!-- Generator: Adobe Illustrator 19.0.0, SVG Export Plug-In . SVG Version: 6.00 Build 0)  -->
<svg version="1.1" id="Capa_1" xmlns="http://www.w3.org/2000/svg" xmlns:xlink="http://www.w3.org/1999/xlink" x="0px" y="0px"
	 viewBox="0 0 512 512" style="enable-background:new 0 0 512 512;" xml:space="preserve">
<path style="fill:#E5E5E5;" d="M480.5,162.11c-13.2-100.499-89.401-148.5-156-159.3c-2.401-0.3-5.099-0.899-7.5-0.899
	c-64.2-8.401-122.1,14.399-149.099,58.2L152,226.911v27.9c0,42.299-6,111.2-15.901,145.699l-9.899,34.501
	c0,0-0.901,2.699-0.901,2.999c-4.499,17.401-0.899,36.301,10.201,50.7s28.5,23.101,46.5,23.101s33.9-7.8,45-20.4
	c11.1,12.599,27.001,20.4,45,20.4s33.9-7.8,45-20.4c11.1,12.599,27.001,20.4,45,20.4s33.9-7.8,45-20.4
	c11.1,12.599,27.001,20.4,45,20.4c32.999,0,60-27.001,60-61.5L480.5,162.11z"/>
<path style="fill:#D9D9D9;" d="M512,450.311c0,34.499-27.001,61.5-60,61.5c-17.999,0-33.9-7.8-45-20.4
	c-11.1,12.599-27.001,20.4-45,20.4s-33.9-7.8-45-20.4V1.911c2.401,0,5.099,0.599,7.5,0.899c66.599,10.8,142.8,58.801,156,159.3
	L512,450.311z"/>
<path style="fill:#FFAC46;" d="M165.96,227.799c-19.775,0-43.389-4.79-70.415-19.028c-19.526-10.283-44.554-11.675-65.193-3.779
	l-9.99,3.823c-4.6,1.787-9.814,1.157-13.857-1.641C2.432,204.376,0,199.748,0,194.811C0,121.247,78.743,61.979,176.697,59.87
	c4.937-0.249,9.829,2.358,12.686,6.504c2.871,4.175,3.428,9.507,1.523,14.18c-18.282,44.604,13.11,79.248,42.656,100.444
	c0.601,0.439,3.354,2.534,3.882,3.047c3.647,3.545,5.259,8.672,4.277,13.667c-0.981,4.98-4.409,9.126-9.126,11.016
	c-1.157,0.469-2.651,1.304-4.526,2.285C217.464,216.608,196.209,227.799,165.96,227.799z"/>
<path style="fill:#787780;" d="M347,74.811H227c-8.401,0-15,6.599-15,15c0,41.4,33.6,75,75,75c10.499,0,20.7-2.1,30-6.301
	c26.4-11.4,45-37.8,45-68.699C362,81.41,355.401,74.811,347,74.811z"/>
<path style="fill:#57555C;" d="M347,74.811h-30v83.699c26.4-11.4,45-37.8,45-68.699C362,81.41,355.401,74.811,347,74.811z"/>
<path style="fill:#AEADB3;" d="M272,391.811c-8.291,0-15-6.709-15-15v-32c0-8.291,6.709-15,15-15s15,6.709,15,15v32
	C287,385.102,280.291,391.811,272,391.811z"/>
<path style="fill:#8B8892;" d="M362,391.811c-8.291,0-15-6.709-15-15v-32c0-8.291,6.709-15,15-15s15,6.709,15,15v32
	C377,385.102,370.291,391.811,362,391.811z"/>
<path style="fill:#FEDB41;" d="M287,134.811c-19.57,0-36.24-12.539-42.422-30h84.873c-4.072,11.558-12.744,21.152-24.346,26.162
	C299.305,133.595,293.387,134.811,287,134.811z"/>
<path style="fill:#FF941D;" d="M317,123.079c5.566-5.004,9.954-11.186,12.451-18.268H317V123.079z"/>
<g>
</g>
<g>
</g>
<g>
</g>
<g>
</g>
<g>
</g>
<g>
</g>
<g>
</g>
<g>
</g>
<g>
</g>
<g>
</g>
<g>
</g>
<g>
</g>
<g>
</g>
<g>
</g>
<g>
</g>
</svg>
