<?xml version="1.0" encoding="iso-8859-1"?>
<!-- Generator: Adobe Illustrator 19.0.0, SVG Export Plug-In . SVG Version: 6.00 Build 0)  -->
<svg version="1.1" id="Capa_1" xmlns="http://www.w3.org/2000/svg" xmlns:xlink="http://www.w3.org/1999/xlink" x="0px" y="0px"
	 viewBox="0 0 512 512" style="enable-background:new 0 0 512 512;" xml:space="preserve">
<path style="fill:#FEDBAB;" d="M357.7,420.099C337.599,457.599,298.599,481,256,481s-81.599-23.401-101.7-60.901l24.901-47.1h153.6
	L357.7,420.099z"/>
<path style="fill:#FEC478;" d="M357.7,420.099C337.599,457.599,298.599,481,256,481V372.999h76.8L357.7,420.099z"/>
<circle style="fill:#E4741B;" cx="437" cy="106" r="75"/>
<path style="fill:#994C10;" d="M437,151c-24.814,0-45-20.186-45-45s20.186-45,45-45s45,20.186,45,45S461.814,151,437,151z"/>
<circle style="fill:#FF941D;" cx="75" cy="106" r="75"/>
<path style="fill:#BF6015;" d="M75,151c-24.814,0-45-20.186-45-45s20.186-45,45-45s45,20.186,45,45S99.814,151,75,151z"/>
<path style="fill:#FFAC46;" d="M481,226L358.001,403.599L256,376l-90,30L31,226C31,116.199,151.901,31,256,31S481,116.199,481,226z"
	/>
<path style="fill:#FF941D;" d="M481,226L358.001,403.599L256,376V31C360.099,31,481,116.199,481,226z"/>
<path style="fill:#FE8821;" d="M425.501,144.099C394,123.1,358.001,118.6,327.1,131.199C293.5,145,271,177.1,271,211
	c0,26.4,11.7,51.299,31.8,68.399c0.3,0.3,0.3,0.601,0.601,0.601l44.7,37.5c11.7,9.901,17.999,24.3,17.1,39.901
	c-0.901,13.2-7.2,25.199-17.1,33.6L260.8,361.9c-1.5-0.6-3-0.9-4.8-0.9s-3.3,0.3-4.799,0.899L163.9,391
	c-10.199-8.401-16.199-20.4-17.1-33.9c-0.899-15.601,5.4-30.3,17.401-40.201L208.3,280.3c20.699-17.1,32.7-42.301,32.7-69.3
	c0-33.9-22.5-66-56.1-79.801c-31.199-12.9-66.899-8.099-98.401,12.9C52.301,167.199,31,204.099,31,241
	c0,46.199,32.1,89.7,85.8,117.9c0,0,0,0,0,0.3c1.8,25.199,15,47.399,36.601,61.199c2.399,1.5,5.099,2.1,7.8,2.1
	c1.8,0,3.3-0.3,4.799-0.601l90-30l90,30c4.2,1.5,9,0.901,12.599-1.5c21.601-13.5,34.801-35.7,36.301-60.899c0-0.3,0-0.3,0-0.601
	c54-28.2,86.1-71.7,86.1-117.9C481,204.399,459.699,167.199,425.501,144.099z"/>
<path style="fill:#E4741B;" d="M481,241c0,46.199-32.1,89.7-86.1,117.9c0,0.3,0,0.3,0,0.601c-1.5,25.199-14.7,47.399-36.301,60.899
	c-3.6,2.401-8.399,2.999-12.599,1.5l-90-30V361c1.8,0,3.3,0.3,4.799,0.899L348.1,391c9.901-8.401,16.199-20.4,17.1-33.6
	c0.899-15.601-5.4-30-17.1-39.901l-44.7-37.5c-0.3,0-0.3-0.3-0.601-0.601C282.7,262.299,271,237.4,271,211
	c0-33.9,22.5-66,56.1-79.801c30.901-12.599,66.899-8.099,98.401,12.9C459.699,167.199,481,204.399,481,241z"/>
<path style="fill:#57555C;" d="M292.599,344.5L271,355.3V376c0,8.399-6.599,15-15,15s-15-6.601-15-15v-20.7l-21.599-10.8
	c-7.5-3.9-10.501-12.902-6.901-20.101c3.9-7.5,12.9-10.499,20.099-6.899L256,329.2l23.401-11.7c7.2-3.6,16.199-0.601,20.099,6.899
	C303.1,331.599,300.099,340.6,292.599,344.5z"/>
<path style="fill:#3C3A41;" d="M292.599,344.5L271,355.3V376c0,8.399-6.599,15-15,15v-61.8l23.401-11.7
	c7.2-3.6,16.199-0.601,20.099,6.899C303.1,331.599,300.099,340.6,292.599,344.5z"/>
<path style="fill:#FEDBAB;" d="M61,241c0-26.499,16.567-54.727,42.202-71.924c22.983-15.366,48.589-19.058,70.313-10.151
	C195.59,167.992,211,189.408,211,211c0,17.952-7.932,34.805-21.78,46.258l-0.031,0.016l-44.019,36.401
	c-11.091,9.159-18.807,20.914-23.465,33.864C83.388,304.896,61,273.435,61,241z"/>
<path style="fill:#FEC478;" d="M390.205,327.585c-4.594-12.647-12.144-24.13-22.921-33.133l-44.546-37.238
	C308.921,245.759,301,228.93,301,211c0-21.592,15.41-43.008,37.485-52.075c21.665-8.906,47.256-5.156,70.21,10.239
	C434.389,186.391,451,214.589,451,241C451,273.459,428.575,304.939,390.205,327.585z"/>
<circle style="fill:#57555C;" cx="166" cy="226" r="15"/>
<circle style="fill:#3C3A41;" cx="346" cy="226" r="15"/>
<circle style="fill:#57555C;" cx="226" cy="106" r="15"/>
<circle style="fill:#3C3A41;" cx="286" cy="106" r="15"/>
<g>
</g>
<g>
</g>
<g>
</g>
<g>
</g>
<g>
</g>
<g>
</g>
<g>
</g>
<g>
</g>
<g>
</g>
<g>
</g>
<g>
</g>
<g>
</g>
<g>
</g>
<g>
</g>
<g>
</g>
</svg>
