<?xml version="1.0" encoding="iso-8859-1"?>
<!-- Generator: Adobe Illustrator 19.0.0, SVG Export Plug-In . SVG Version: 6.00 Build 0)  -->
<svg version="1.1" id="Capa_1" xmlns="http://www.w3.org/2000/svg" xmlns:xlink="http://www.w3.org/1999/xlink" x="0px" y="0px"
	 viewBox="0 0 512 512" style="enable-background:new 0 0 512 512;" xml:space="preserve">
<path style="fill:#8B8892;" d="M412.19,189.799c-20.038,0-38.876-7.808-53.025-21.972c-5.859-5.859-5.859-15.352,0-21.21
	l84.841-84.841c5.859-5.859,15.352-5.859,21.21,0c14.165,14.15,21.972,32.987,21.972,53.025s-7.808,38.876-21.972,53.025
	C451.066,181.992,432.229,189.799,412.19,189.799z"/>
<path style="fill:#AEADB3;" d="M99.764,189.755c-19.203,0-38.407-7.31-53.025-21.928c-29.237-29.237-29.237-76.814,0-106.052
	c5.859-5.859,15.352-5.859,21.21,0l84.855,84.841c2.813,2.813,4.395,6.621,4.395,10.605c0,3.984-1.582,7.793-4.395,10.605
	C138.186,182.446,118.983,189.755,99.764,189.755z"/>
<path style="fill:#57555C;" d="M392.782,155.42c16.522,7.939,37.895,4.512,51.224-8.804c8.496-8.496,13.184-19.789,13.184-31.815
	c0-6.826-1.509-13.433-4.38-19.408L392.782,155.42z"/>
<path style="fill:#787780;" d="M59.159,95.408c-7.969,16.728-5.039,37.382,8.789,51.209c13.374,13.33,34.73,16.713,51.238,8.804
	L59.159,95.408z"/>
<path style="fill:#AEADB3;" d="M283.405,61.014h-59.998c-74.397,0-134.996,60.597-134.996,134.996v143.795
	c0,27.899,10.8,54.298,30.9,74.097l29.398,29.699c3.3,38.1,35.399,68.399,74.698,68.399h59.998
	c39.299,0,71.398-30.299,74.698-68.399l29.398-29.699c20.1-19.798,30.9-46.198,30.9-74.097V196.01
	C418.401,121.611,357.803,61.014,283.405,61.014z"/>
<path style="fill:#8B8892;" d="M418.401,196.01v143.796c0,27.899-10.8,54.298-30.9,74.097l-29.398,29.699
	c-3.3,38.1-35.399,68.399-74.698,68.399h-29.999V61.014h29.999C357.803,61.014,418.401,121.611,418.401,196.01z"/>
<circle style="fill:#57555C;" cx="223.402" cy="437.006" r="15"/>
<g>
	<circle style="fill:#3C3A41;" cx="283.41" cy="437.006" r="15"/>
	<circle style="fill:#3C3A41;" cx="343.409" cy="226.013" r="15"/>
</g>
<circle style="fill:#57555C;" cx="163.404" cy="226.013" r="15"/>
<path style="fill:#E5E5E5;" d="M253.406,362.005c-37.799,0-66.299-34.8-58.799-72.299l44.999-277.689
	c1.501-7.8,7.5-11.7,13.801-12.001c6.899-0.3,14.099,3.6,15.6,12.001l43.199,278.29
	C319.705,327.806,290.905,362.005,253.406,362.005z"/>
<path style="fill:#D9D9D9;" d="M253.406,362.005V0.016c6.899-0.3,14.099,3.6,15.6,12.001l43.199,278.29
	C319.705,327.806,290.905,362.005,253.406,362.005z"/>
<g>
</g>
<g>
</g>
<g>
</g>
<g>
</g>
<g>
</g>
<g>
</g>
<g>
</g>
<g>
</g>
<g>
</g>
<g>
</g>
<g>
</g>
<g>
</g>
<g>
</g>
<g>
</g>
<g>
</g>
</svg>
