<?xml version="1.0" encoding="iso-8859-1"?>
<!-- Generator: Adobe Illustrator 19.0.0, SVG Export Plug-In . SVG Version: 6.00 Build 0)  -->
<svg version="1.1" id="Capa_1" xmlns="http://www.w3.org/2000/svg" xmlns:xlink="http://www.w3.org/1999/xlink" x="0px" y="0px"
	 viewBox="0 0 512 512" style="enable-background:new 0 0 512 512;" xml:space="preserve">
<path style="fill:#73553A;" d="M271,467v30c0,8.399-6.599,15-15,15s-15-6.601-15-15v-30c0-8.401,6.599-15,15-15S271,458.599,271,467
	z"/>
<path style="fill:#59422D;" d="M271,467v30c0,8.399-6.599,15-15,15v-60C264.401,452,271,458.599,271,467z"/>
<path style="fill:#98CB51;" d="M191.488,438.963l-67.441-53.013c-4.937-6.621-14.326-7.925-21.006-2.988
	C76.322,403.016,61,433.646,61,467v30c0,8.291,6.709,15,15,15h30c37.397,0,72.246-20.127,90.981-52.544
	C201.127,452.293,198.666,443.108,191.488,438.963z"/>
<path style="fill:#60C244;" d="M408.959,382.962c-6.665-4.966-16.04-3.633-21.006,2.988l-67.441,53.013
	c-7.178,4.146-9.639,13.33-5.493,20.493C333.754,491.873,368.603,512,406,512h30c8.291,0,15-6.709,15-15v-30
	C451,433.646,435.678,403.016,408.959,382.962z"/>
<path style="fill:#98CB51;" d="M106,121C48.109,121,0,168.109,0,226c0,8.291,6.709,15,15,15h71.283l70.313-120H106z"/>
<path style="fill:#60C244;" d="M406,121h-50.596l70.313,120H497c8.291,0,15-6.709,15-15C512,168.109,463.891,121,406,121z"/>
<path style="fill:#98CB51;" d="M331,75v41.199c0,8.401-6.599,15-15,15H196c-8.401,0-15-6.599-15-15V75c0-41.4,33.6-75,75-75
	S331,33.6,331,75z"/>
<path style="fill:#60C244;" d="M316,131.199h-60V0c41.4,0,75,33.6,75,75v41.199C331,124.6,324.401,131.199,316,131.199z"/>
<path style="fill:#A07854;" d="M364.3,123.999L351.7,173.2L302.199,262L256,286l-30.901-23.701l-78.898-118.2l1.5-20.099
	C178.599,103.299,215.799,91,256,91S333.401,103.299,364.3,123.999z"/>
<path style="fill:#896748;" d="M364.3,123.999L351.7,173.2L302.199,262L256,286V91C296.201,91,333.401,103.299,364.3,123.999z"/>
<path style="fill:#73553A;" d="M451,286c0-67.429-34.422-126.953-86.598-161.984L256,286l63.75,30h82.509L451,286z"/>
<g>
	<path style="fill:#896748;" d="M358.261,452.718C413.804,418.314,451,355.996,451,286H256l22.5,67.463l38.524,81.046
		L358.261,452.718z"/>
	<path style="fill:#896748;" d="M358.299,452.599C328.599,471.2,293.5,482,256,482s-72.599-10.8-102.299-29.401l12.9-50.7l44.099-91
		L256,286L358.299,452.599z"/>
</g>
<path style="fill:#73553A;" d="M358.299,452.599C328.599,471.2,293.5,482,256,482V286L358.299,452.599z"/>
<path style="fill:#A07854;" d="M61,286c0,69.996,37.196,132.314,92.739,166.718L256,286l-62.831-30H84.429L61,286z"/>
<path style="fill:#896748;" d="M61,286h195L147.598,124.016C95.422,159.047,61,218.571,61,286z"/>
<path style="fill:#73553A;" d="M352.301,277.599l-39.901-60c-2.701-4.2-7.5-6.599-12.599-6.599H212.2
	c-5.099,0-9.899,2.399-12.599,6.599l-39.901,60c-3.6,5.101-3.6,11.7,0,16.8l39.901,61c2.701,4.2,7.5,6.601,12.599,6.601h87.601
	c5.099,0,9.899-2.401,12.599-6.601l39.901-61C355.901,289.3,355.901,282.7,352.301,277.599z"/>
<path style="fill:#59422D;" d="M352.301,294.399l-39.901,61c-2.701,4.2-7.5,6.601-12.599,6.601H256V211h43.801
	c5.099,0,9.899,2.399,12.599,6.599l39.901,60C355.901,282.7,355.901,289.3,352.301,294.399z"/>
<g>
</g>
<g>
</g>
<g>
</g>
<g>
</g>
<g>
</g>
<g>
</g>
<g>
</g>
<g>
</g>
<g>
</g>
<g>
</g>
<g>
</g>
<g>
</g>
<g>
</g>
<g>
</g>
<g>
</g>
</svg>
