<?xml version="1.0" encoding="iso-8859-1"?>
<!-- Generator: Adobe Illustrator 19.0.0, SVG Export Plug-In . SVG Version: 6.00 Build 0)  -->
<svg version="1.1" id="Capa_1" xmlns="http://www.w3.org/2000/svg" xmlns:xlink="http://www.w3.org/1999/xlink" x="0px" y="0px"
	 viewBox="0 0 512.001 512.001" style="enable-background:new 0 0 512.001 512.001;" xml:space="preserve">
<path style="fill:#3C3A41;" d="M377.17,193.931c-4.995,0-10.005-0.264-15.029-0.82c-6.987-0.776-12.495-6.284-13.271-13.271
	c-4.512-40.986,9.595-81.196,38.73-110.303c29.106-29.136,69.434-43.169,110.303-38.73c6.987,0.776,12.495,6.284,13.271,13.271
	c4.512,40.986-9.595,81.196-38.73,110.303C446.911,179.942,412.824,193.931,377.17,193.931z"/>
<path style="fill:#D9D9D9;" d="M481.994,59.986c-27.407,0.234-53.54,11.104-73.184,30.762
	c-19.658,19.644-30.527,45.776-30.762,73.184c27.407-0.234,53.54-11.104,73.184-30.762
	C470.89,113.526,481.759,87.393,481.994,59.986z"/>
<path style="fill:#57555C;" d="M134.83,193.938c-35.654,0-69.727-13.989-95.273-39.551C10.421,125.281-3.685,85.071,0.826,44.085
	C1.602,37.098,7.11,31.59,14.097,30.814c40.986-4.468,81.196,9.609,110.303,38.73c29.136,29.106,43.242,69.316,38.73,110.303
	c-0.776,6.987-6.284,12.495-13.271,13.271C144.835,193.675,139.811,193.938,134.83,193.938z M148.219,178.206h0.293H148.219z"/>
<g>
	<path style="fill:#E5E5E5;" d="M148.219,178.206h0.293H148.219z M30.006,59.993c0.234,27.407,11.104,53.54,30.762,73.184
		c19.644,19.658,45.776,30.527,73.184,30.762c-0.234-27.407-11.104-53.54-30.762-73.184C83.546,71.097,57.413,60.228,30.006,59.993z
		"/>
	<path style="fill:#E5E5E5;" d="M421,225v15l-15,15l11.7,15c-1.8,10.199-4.801,20.4-8.701,30L376,315l17.999,15
		c-0.298,0.3-0.599,0.899-0.599,1.199l-19.801,30.399c-7.8,11.7-11.699,24.901-12.299,38.701l-30.901,11.1
		C310,391,283.001,380.799,256,380.799S202,391,181.601,411.4L150.7,400.3c-0.601-13.801-4.499-27.001-12.299-38.701L118.6,331.2
		c0-0.3-0.3-0.899-0.599-1.199L136,315l-32.999-15c-3.9-9.6-6.901-19.801-8.701-30l41.7-15l-45-15v-15c0-5.101,0.601-9.901,1.199-15
		L133,195l-35.402-15c14.702-51.901,54.001-94.501,107.1-111.901h102.601c53.099,17.401,92.399,60,107.1,111.901l-37.5,15l42.9,15
		C420.399,215.099,421,219.899,421,225z"/>
</g>
<path style="fill:#D9D9D9;" d="M421,225v15l-15,15l11.7,15c-1.8,10.199-4.801,20.4-8.701,30L376,315l17.999,15
	c-0.298,0.3-0.599,0.899-0.599,1.199l-19.801,30.399c-7.8,11.7-11.699,24.901-12.299,38.701l-30.901,11.1
	C310,391,283.001,380.799,256,380.799v-312.7h51.301C360.4,85.5,399.7,128.099,414.401,180l-37.5,15l42.9,15
	C420.399,215.099,421,219.899,421,225z"/>
<g>
	<path style="fill:#787780;" d="M314.2,16.5C305.501,6,292.899,0,279.401,0h-46.802c-13.499,0-26.1,6-34.799,16.5
		s-12.001,24-9.3,37.2l16.8,84.901c4.799,24,26.1,41.4,50.7,41.4s45.901-17.401,50.7-41.4L323.5,53.7
		C326.201,40.499,322.899,26.999,314.2,16.5z"/>
	<path style="fill:#787780;" d="M211,315c0-8.291-6.709-15-15-15h-93.098c4.111,10.402,8.965,20.524,15.183,30H196
		C204.291,330,211,323.291,211,315z"/>
</g>
<g>
	<path style="fill:#57555C;" d="M301,315c0,8.291,6.709,15,15,15h77.915c6.218-9.476,11.072-19.598,15.183-30H316
		C307.709,300,301,306.709,301,315z"/>
	<path style="fill:#57555C;" d="M302.011,195c0,8.291,6.709,15,15,15h102.797c-0.934-10.27-2.673-20.295-5.414-30h-97.383
		C308.72,180,302.011,186.709,302.011,195z"/>
</g>
<g>
	<path style="fill:#787780;" d="M208.1,195c0-8.291-6.709-15-15-15H97.606c-2.741,9.705-4.481,19.73-5.414,30H193.1
		C201.391,210,208.1,203.291,208.1,195z"/>
	<path style="fill:#787780;" d="M151,255c0-8.291-6.709-15-15-15H91.029c0.026,10.164,1.28,20.145,3.126,30H136
		C144.291,270,151,263.291,151,255z"/>
</g>
<path style="fill:#57555C;" d="M376,240c-8.291,0-15,6.709-15,15s6.709,15,15,15h41.845c1.846-9.855,3.1-19.836,3.126-30H376z"/>
<path style="fill:#787780;" d="M361.3,400.3c0,0.899-0.3,1.8-0.3,2.999V437c0,1.8-0.3,3.6-0.601,5.7
	C357.4,481.399,325.3,512,286,512h-60c-39.3,0-71.4-30.601-74.399-69.3c-0.3-2.1-0.601-3.9-0.601-5.7v-33.701
	c0-1.199-0.3-2.1-0.3-2.999l9.901-9.901c26.4-26.4,60.899-39.6,95.4-39.6s69,13.2,95.4,39.6L361.3,400.3z"/>
<circle style="fill:#57555C;" cx="226" cy="437" r="15"/>
<circle style="fill:#3C3A41;" cx="316" cy="255" r="15"/>
<g>
	<circle style="fill:#57555C;" cx="196" cy="255" r="15"/>
	<path style="fill:#57555C;" d="M256,180V0h23.401c13.499,0,26.1,6,34.799,16.5s12.001,24,9.3,37.2l-16.8,84.9
		C301.901,162.599,280.6,180,256,180z"/>
	<path style="fill:#57555C;" d="M361.3,400.3c0,0.899-0.3,1.8-0.3,2.999V437c0,1.8-0.3,3.6-0.601,5.7
		C357.4,481.399,325.3,512,286,512h-30V350.799c34.501,0,69,13.2,95.4,39.6L361.3,400.3z"/>
</g>
<circle style="fill:#3C3A41;" cx="286" cy="437" r="15"/>
<g>
</g>
<g>
</g>
<g>
</g>
<g>
</g>
<g>
</g>
<g>
</g>
<g>
</g>
<g>
</g>
<g>
</g>
<g>
</g>
<g>
</g>
<g>
</g>
<g>
</g>
<g>
</g>
<g>
</g>
</svg>
